<?xml version="1.0" standalone="no"?>
<!DOCTYPE svg PUBLIC "-//W3C//DTD SVG 20010904//EN"
 "http://www.w3.org/TR/2001/REC-SVG-20010904/DTD/svg10.dtd">
<svg version="1.0" xmlns="http://www.w3.org/2000/svg"
 width="1111.000000pt" height="1280.000000pt" viewBox="0 0 1111.000000 1280.000000"
 preserveAspectRatio="xMidYMid meet">
<metadata>
Created by potrace 1.15, written by Peter Selinger 2001-2017
</metadata>
<g transform="translate(0.000000,1280.000000) scale(0.100000,-0.100000)"
fill="#ffffff" stroke="none">
<path d="M3135 12790 c-16 -4 -59 -21 -95 -38 -36 -16 -92 -38 -125 -47 -33
-10 -76 -26 -96 -36 -55 -27 -139 -98 -149 -124 -6 -17 -22 -27 -51 -35 -25
-7 -61 -30 -92 -58 -51 -48 -230 -282 -327 -427 -51 -77 -179 -246 -237 -312
-15 -18 -40 -52 -55 -75 -15 -24 -68 -88 -119 -143 -149 -162 -206 -247 -242
-360 -9 -27 -30 -140 -47 -250 -45 -290 -66 -362 -184 -627 -64 -143 -133
-338 -147 -413 -14 -71 -1 -260 26 -400 33 -168 39 -224 26 -273 -6 -22 -46
-92 -87 -154 -42 -62 -91 -143 -110 -180 l-34 -68 5 -196 c3 -108 7 -200 10
-204 7 -12 -26 -208 -56 -330 -15 -63 -45 -158 -65 -210 -20 -52 -40 -113 -45
-135 -7 -38 -18 -69 -103 -300 -80 -214 -147 -423 -156 -485 -5 -36 -21 -101
-35 -145 -14 -44 -44 -183 -66 -310 -22 -126 -50 -279 -63 -340 -32 -150 -47
-312 -55 -625 l-8 -265 -62 -128 c-59 -120 -63 -133 -76 -245 -16 -138 -43
-311 -51 -323 -9 -15 -66 -282 -70 -329 -2 -24 -17 -121 -33 -215 -60 -342
-76 -717 -42 -985 28 -223 36 -262 81 -405 27 -82 62 -197 80 -255 18 -58 51
-148 75 -200 70 -158 92 -211 125 -310 35 -107 105 -272 144 -341 24 -42 65
-144 87 -214 5 -16 9 -96 9 -176 l0 -147 46 -51 c50 -56 108 -91 149 -91 14 0
25 -5 25 -11 0 -20 70 -118 95 -135 43 -28 150 -39 219 -23 45 10 138 14 361
14 165 1 365 4 445 9 189 10 329 -11 616 -93 120 -34 311 -79 449 -105 132
-25 283 -57 335 -71 114 -30 209 -46 480 -81 113 -14 298 -39 411 -55 250 -35
389 -45 799 -59 437 -15 555 -25 790 -70 279 -53 558 -82 1170 -120 323 -21
929 -6 1075 26 39 9 120 22 180 30 132 17 129 16 330 64 198 48 388 83 565
104 74 9 157 21 183 26 95 19 590 34 727 21 275 -25 360 -49 629 -176 175 -83
261 -111 261 -87 0 6 -13 20 -30 32 -16 12 -30 30 -30 40 0 35 -22 67 -71 104
-26 21 -51 46 -54 57 -4 10 -31 35 -61 55 -99 66 -252 208 -322 299 -25 33
-86 107 -136 165 -49 57 -127 161 -172 231 l-82 126 5 139 6 139 43 66 c47 74
87 108 137 116 45 7 80 -12 191 -105 87 -72 138 -102 199 -116 23 -6 30 -3 34
14 7 26 8 25 68 -10 55 -32 105 -38 125 -15 21 25 -11 59 -87 90 -350 143
-499 278 -848 771 -65 91 -208 246 -571 615 -73 75 -170 162 -215 195 -45 32
-101 75 -123 95 -23 20 -88 70 -146 112 -58 41 -143 110 -189 152 -86 78 -203
155 -235 155 -30 0 -56 -20 -56 -43 0 -12 19 -45 41 -72 49 -59 72 -109 64
-136 -4 -11 -29 -31 -56 -44 -27 -14 -49 -30 -49 -35 0 -18 95 -58 190 -80 52
-12 124 -28 159 -36 79 -18 161 -60 230 -116 30 -23 69 -53 87 -66 37 -24 53
-65 36 -92 -9 -14 -7 -22 9 -36 26 -23 24 -58 -7 -124 -49 -106 -96 -155 -187
-199 -61 -30 -88 -49 -105 -76 l-23 -36 -35 30 c-36 32 -53 37 -69 22 -6 -5
-24 -12 -42 -16 -25 -5 -34 -2 -42 14 -13 23 -31 27 -181 42 -63 6 -192 24
-287 40 -209 36 -262 36 -328 5 -59 -27 -72 -41 -77 -81 l-3 -30 215 -6 c406
-12 677 -73 964 -216 61 -30 113 -57 115 -59 3 -2 -12 -19 -32 -38 -41 -37
-44 -48 -22 -66 17 -14 59 -10 145 16 216 63 625 -8 736 -128 72 -77 154 -220
154 -268 0 -15 -13 -56 -30 -91 -16 -35 -37 -93 -46 -129 -9 -36 -23 -78 -31
-94 -43 -84 -183 -187 -369 -272 -41 -19 -90 -45 -107 -58 -18 -14 -79 -43
-137 -66 -58 -23 -113 -49 -122 -57 -25 -23 -24 -94 2 -118 24 -21 99 -17 148
8 18 10 45 24 61 32 15 8 49 18 74 21 42 6 49 4 76 -24 61 -60 29 -123 -94
-188 -124 -66 -535 -193 -769 -238 l-128 -25 -57 19 c-76 27 -156 36 -176 20
-25 -21 -17 -38 26 -60 23 -12 38 -24 34 -28 -4 -4 -52 -10 -108 -13 -56 -3
-208 -25 -339 -48 -268 -46 -363 -51 -568 -25 -72 9 -229 17 -370 19 -232 3
-367 15 -605 50 -337 51 -442 65 -545 75 -127 12 -238 32 -317 56 -52 16 -63
27 -43 39 14 9 12 51 -2 63 -7 5 -51 15 -98 21 -205 28 -433 94 -560 162 -68
36 -73 42 -133 149 -23 41 -52 79 -63 85 -12 6 -28 16 -35 22 -8 6 -58 14
-112 18 -108 8 -117 14 -115 75 2 58 -73 94 -217 107 -59 5 -74 3 -88 -11 -43
-43 -11 -66 140 -101 l112 -26 17 -45 c24 -63 71 -100 143 -115 58 -12 59 -13
65 -50 6 -41 11 -43 88 -54 33 -4 49 -12 53 -24 5 -17 179 -121 202 -121 6 0
46 -16 89 -36 44 -20 93 -40 109 -43 23 -5 30 -12 30 -31 0 -21 -4 -25 -29
-23 -15 1 -46 11 -67 23 -49 25 -51 25 -47 -3 2 -15 13 -25 34 -31 26 -8 33
-16 38 -45 8 -51 -33 -68 -92 -37 -30 15 -97 22 -382 36 -364 19 -532 41 -780
100 -91 22 -209 46 -262 55 -141 22 -307 57 -523 109 -231 57 -289 73 -478
138 -186 64 -187 68 -35 153 119 67 148 90 148 117 0 13 -7 18 -27 18 -34 0
-242 -89 -458 -196 -93 -46 -197 -91 -230 -99 -103 -26 -215 -16 -215 20 0 13
-19 15 -122 15 -68 0 -166 -6 -218 -12 -123 -15 -266 -16 -280 -2 -6 6 -13 26
-16 45 -5 30 -1 40 30 71 20 20 36 43 36 51 0 28 -21 70 -41 85 -10 7 -28 31
-39 53 l-21 39 45 20 c38 16 46 24 52 55 5 27 2 41 -11 55 -15 17 -16 31 -11
107 20 252 42 358 115 555 73 198 88 202 47 13 -25 -111 -23 -135 11 -135 18
0 36 45 58 145 30 139 74 245 139 330 14 19 15 19 28 2 12 -16 17 -17 41 -6
21 10 44 44 94 143 88 174 102 202 113 231 5 14 21 30 35 35 13 5 45 38 71 72
48 65 144 251 144 279 0 8 7 24 16 35 15 18 15 18 8 -5 -13 -50 22 -14 63 65
83 156 142 408 125 534 -6 50 -9 55 -32 55 -24 0 -25 -3 -42 -124 -16 -108
-71 -369 -97 -456 -7 -22 -10 -1 -10 83 -1 111 -1 113 -23 110 -28 -4 -50 -60
-71 -179 -17 -94 -53 -199 -69 -199 -5 0 -8 6 -5 14 12 30 19 136 10 136 -14
0 -53 -44 -53 -59 0 -7 -11 -34 -25 -60 -13 -25 -33 -67 -44 -93 l-20 -48 -55
0 c-53 0 -56 -2 -72 -33 -9 -17 -27 -43 -40 -57 -42 -46 -152 -250 -188 -352
-10 -26 -43 -76 -77 -115 -34 -37 -69 -84 -79 -104 -10 -19 -26 -41 -34 -48
-9 -8 -16 -24 -16 -38 0 -13 -8 -45 -19 -71 -67 -168 -96 -307 -117 -547 -9
-104 -18 -201 -21 -215 l-6 -25 -9 30 c-6 17 -9 84 -7 150 4 222 1 296 -17
334 -23 48 -14 237 16 331 20 61 20 67 5 106 -19 50 -68 99 -90 90 -20 -7 -59
-91 -81 -175 -9 -36 -25 -75 -35 -85 -18 -19 -19 -19 -38 -2 -11 10 -25 41
-32 69 -7 29 -22 82 -34 118 -13 36 -26 86 -30 110 -3 24 -24 82 -45 129 -21
47 -45 105 -54 130 -9 25 -26 58 -39 74 -21 26 -26 27 -46 16 -21 -11 -23 -17
-18 -58 3 -26 13 -80 21 -120 28 -124 24 -242 -6 -189 -5 10 -22 23 -36 29
-15 6 -22 12 -14 15 25 9 9 66 -39 133 -9 14 -20 48 -24 75 -4 28 -18 84 -32
125 -81 248 -99 508 -68 982 16 235 78 698 115 850 62 255 123 496 150 588 16
58 30 113 30 122 0 10 14 77 31 150 17 73 44 189 60 258 50 219 56 290 24 290
-13 0 -24 -22 -45 -92 -26 -86 -45 -20 -31 107 15 124 124 618 154 691 49 122
92 300 117 489 6 50 21 102 39 140 50 103 74 175 103 305 10 47 23 105 28 128
5 24 25 78 44 120 19 43 46 115 60 162 15 47 31 99 37 115 38 105 68 243 79
359 5 61 14 127 20 146 15 51 13 125 -4 139 -11 9 -18 6 -35 -16 l-20 -28 -1
26 c0 15 6 32 13 38 8 6 14 30 15 53 1 84 30 118 101 118 39 0 86 37 70 56 -6
8 -18 14 -26 14 -8 0 -11 5 -8 10 3 6 20 10 36 10 27 0 30 3 27 27 -2 23 -10
29 -44 38 l-42 10 24 35 c13 19 24 42 24 52 0 15 7 16 49 11 43 -5 50 -3 65
18 22 32 20 62 -5 85 -29 26 -59 98 -59 143 0 20 -4 41 -8 46 -5 6 -17 56 -27
113 -18 97 -18 107 -1 216 25 167 153 565 242 755 24 52 51 119 58 150 18 71
37 224 35 276 -2 49 32 169 58 201 18 23 187 212 222 250 27 27 71 105 71 125
0 22 167 182 218 208 62 31 115 83 161 156 41 64 72 97 57 59 -19 -45 -19 -54
1 -54 23 0 64 42 132 137 48 66 114 123 128 110 3 -4 -15 -29 -41 -58 -25 -28
-46 -57 -46 -65 0 -26 56 -15 108 21 79 54 127 61 223 30 158 -50 159 -26 2
91 -65 48 -131 92 -148 97 -16 5 -42 16 -57 23 -39 20 -78 17 -134 -11 -71
-35 -125 -92 -172 -180 -41 -76 -149 -222 -192 -260 -30 -26 -25 -15 31 70 25
39 68 105 95 147 27 42 89 129 138 194 120 157 179 194 310 194 54 0 61 -3 90
-34 35 -39 72 -56 120 -56 32 0 66 25 66 48 0 13 -164 92 -191 92 -9 0 -19 -6
-22 -12 -3 -10 -11 -10 -32 2 -38 20 -40 32 -11 68 28 33 70 46 178 57 59 6
69 5 74 -10 4 -10 1 -20 -6 -25 -21 -13 -2 -29 53 -44 92 -25 130 -27 167 -8
42 21 47 52 10 62 -14 4 -44 13 -66 19 -23 6 -54 21 -69 33 -26 20 -27 22 -9
35 28 21 107 15 181 -13 83 -31 160 -45 461 -84 307 -39 422 -61 590 -109 147
-43 214 -69 270 -103 l33 -20 -22 -24 c-21 -23 -22 -26 -7 -41 11 -10 43 -18
89 -22 64 -6 75 -10 100 -39 16 -18 29 -43 29 -56 0 -53 -100 -144 -134 -121
-103 73 -298 189 -401 240 -147 72 -443 175 -501 175 -22 0 -86 14 -144 30
-153 45 -229 60 -237 47 -18 -30 84 -70 552 -220 161 -51 251 -89 428 -179
139 -71 158 -84 165 -110 6 -24 17 -34 56 -49 75 -28 120 -83 86 -104 -13 -8
-107 41 -119 62 -7 14 -22 18 -63 18 -45 0 -62 -7 -112 -39 -33 -22 -79 -57
-104 -79 -51 -48 -61 -45 -107 25 -16 26 -39 49 -50 52 -11 3 -44 26 -73 50
-32 28 -73 52 -104 61 -58 17 -138 20 -138 5 0 -5 45 -40 101 -77 136 -90 183
-138 225 -228 19 -40 34 -80 34 -87 0 -8 -11 -37 -25 -65 -28 -56 -44 -66
-175 -117 -99 -38 -114 -60 -48 -71 l42 -7 -29 -24 c-45 -36 -145 -87 -145
-74 0 6 14 31 30 55 35 51 37 61 10 70 -14 4 -20 15 -20 35 0 20 -6 29 -21 33
-15 4 -20 12 -17 29 3 22 13 25 48 17 25 -6 13 40 -25 103 -19 31 -35 62 -35
69 0 16 -133 145 -205 199 -96 73 -254 139 -285 120 -27 -17 45 -93 170 -177
89 -60 215 -175 235 -214 8 -15 15 -43 15 -62 0 -23 7 -39 19 -48 18 -13 18
-18 7 -61 -17 -62 -54 -114 -138 -193 -70 -66 -98 -82 -78 -45 6 11 8 25 5 30
-11 17 -55 -13 -90 -62 -19 -26 -67 -74 -107 -105 -40 -32 -97 -81 -128 -110
-44 -41 -61 -51 -79 -46 -19 5 -22 2 -19 -13 3 -15 12 -19 41 -19 43 0 47 -7
12 -23 -39 -18 -48 -15 -112 32 -81 60 -115 76 -298 136 -139 46 -165 58 -203
94 l-44 42 44 46 c48 51 149 123 216 152 35 16 47 17 63 8 10 -7 32 -12 49
-12 29 0 133 -51 146 -71 3 -6 11 -31 17 -57 8 -29 18 -48 28 -50 21 -4 49 54
49 103 0 47 22 88 63 119 43 33 164 96 183 96 20 0 14 30 -8 44 -20 12 -122
-3 -209 -32 -52 -17 -60 -17 -115 -3 -72 19 -73 24 -49 167 10 56 15 110 11
119 -9 25 -50 15 -56 -15 -4 -14 -14 -42 -23 -63 -10 -20 -20 -59 -23 -85 -7
-59 -23 -112 -33 -112 -5 0 -43 -23 -85 -50 -43 -28 -103 -63 -134 -79 -31
-15 -94 -48 -140 -73 l-83 -45 -123 5 c-129 5 -196 -7 -196 -34 0 -8 4 -14 9
-14 34 0 189 -33 214 -46 77 -40 202 -184 294 -336 93 -156 103 -208 78 -428
-25 -221 -29 -301 -17 -356 9 -42 7 -70 -9 -160 -11 -60 -29 -154 -39 -210
-10 -56 -24 -111 -32 -123 -7 -12 -50 -54 -96 -93 -52 -45 -95 -92 -115 -127
-26 -44 -40 -57 -64 -62 -85 -17 -187 -72 -295 -158 -29 -24 -31 -24 -44 -6
-8 10 -14 22 -14 27 0 14 -58 38 -93 38 -41 0 -66 -24 -51 -48 6 -10 37 -31
70 -49 32 -17 59 -35 59 -39 0 -4 -13 -11 -30 -16 -23 -6 -46 -1 -102 22 -94
39 -160 49 -169 26 -4 -10 -2 -22 5 -29 8 -8 5 -17 -11 -34 -19 -20 -19 -23
-4 -23 9 0 32 -11 50 -25 18 -14 36 -25 40 -25 18 0 150 -96 171 -125 17 -22
32 -76 58 -205 20 -96 53 -259 76 -361 29 -136 40 -213 42 -285 2 -142 16
-222 41 -235 13 -7 24 -7 30 -1 18 18 29 151 29 387 0 132 1 287 2 345 2 121
-6 208 -21 236 -6 11 -13 36 -17 57 -4 20 -11 40 -16 43 -5 3 -9 18 -9 34 0
22 -5 29 -23 32 -12 2 -22 10 -22 18 0 11 9 14 33 12 62 -5 91 -28 125 -100
31 -65 31 -70 29 -195 -2 -70 -7 -158 -13 -195 -9 -64 -32 -535 -32 -672 1
-249 16 -714 33 -975 11 -170 24 -389 30 -485 6 -96 16 -229 22 -295 7 -66 13
-181 13 -255 1 -74 7 -193 13 -265 6 -71 11 -140 12 -152 0 -30 28 -30 40 0 5
12 29 96 54 186 26 90 66 213 90 275 24 61 54 140 66 176 27 82 99 239 119
264 27 31 88 56 138 56 48 0 49 -1 80 -52 49 -82 170 -407 213 -570 57 -214
88 -283 169 -370 94 -102 108 -125 145 -235 18 -54 51 -141 74 -193 57 -135
87 -237 111 -377 44 -260 39 -394 -24 -637 -74 -284 -82 -308 -125 -349 -34
-32 -46 -38 -78 -35 -48 4 -52 26 -13 71 33 37 40 77 17 96 -33 28 -109 -39
-131 -117 -17 -58 -69 -122 -133 -164 -193 -125 -256 -172 -312 -228 -36 -36
-87 -81 -115 -100 -27 -18 -72 -53 -99 -76 -27 -23 -72 -55 -100 -70 -101 -54
-222 -137 -265 -183 -24 -25 -102 -110 -173 -189 -187 -206 -231 -226 -385
-181 -80 24 -103 18 -103 -25 0 -56 88 -97 220 -103 87 -5 98 -3 130 19 19 13
64 63 100 111 134 183 227 293 285 340 59 47 172 107 350 185 98 43 121 65 92
86 -16 13 -15 16 22 45 22 17 63 42 93 56 108 49 426 134 502 135 16 0 51 -13
78 -30 32 -20 61 -30 87 -30 l40 0 53 101 c29 55 76 128 104 162 27 34 61 80
74 102 32 54 65 90 129 138 30 22 85 71 122 108 38 38 75 69 83 69 7 0 16 9
19 19 2 11 25 30 50 43 24 13 79 46 121 75 82 56 294 166 338 177 15 3 43 17
62 30 45 30 228 91 351 116 53 11 102 23 108 27 6 3 47 10 91 14 45 4 110 13
146 20 49 10 205 14 635 14 l570 0 130 -28 c219 -48 388 -115 546 -217 34 -22
67 -40 74 -40 6 0 53 -20 103 -45 108 -52 416 -176 587 -236 66 -23 175 -65
241 -95 120 -52 281 -107 359 -124 160 -34 223 -52 535 -148 63 -19 176 -60
250 -90 74 -30 151 -56 170 -57 19 -2 56 -6 81 -10 42 -7 48 -5 67 20 27 34
28 59 2 100 -23 37 -75 75 -140 103 -85 36 -445 151 -635 202 -104 28 -260 71
-345 95 -99 28 -212 52 -315 66 -167 22 -205 32 -205 49 0 19 40 50 64 50 17
0 27 8 35 29 16 36 61 80 131 124 90 56 297 163 420 215 63 28 151 66 195 87
44 20 132 59 195 87 63 27 140 63 170 78 30 16 81 36 114 45 32 9 90 30 130
47 105 43 472 164 541 178 33 6 105 22 160 35 55 14 187 34 294 45 339 37 401
52 421 106 14 35 12 98 -2 112 -16 16 -45 15 -50 0 -4 -10 -10 -10 -32 0 -98
45 -703 -39 -921 -128 -120 -49 -264 -96 -458 -150 -81 -23 -188 -56 -236 -75
-214 -81 -762 -347 -902 -436 -42 -27 -80 -49 -84 -49 -5 0 -29 -17 -54 -38
-25 -21 -91 -65 -146 -97 -55 -32 -123 -73 -151 -91 -28 -19 -59 -34 -70 -34
-50 0 -243 84 -494 215 -183 95 -346 164 -447 189 -186 47 -263 51 -948 51
l-640 0 -150 -33 c-297 -66 -609 -174 -695 -242 -59 -46 -243 -156 -408 -244
-113 -60 -189 -109 -267 -172 l-110 -88 -3 40 c-2 21 -10 45 -19 51 -16 12
-16 13 0 13 9 0 17 1 18 3 5 13 31 320 35 417 6 124 1 178 -31 350 -28 149
-54 226 -124 378 -200 430 -242 526 -275 628 -20 62 -52 137 -71 169 -19 32
-35 63 -35 70 0 20 -56 174 -80 220 -11 21 -20 50 -20 64 0 14 -8 34 -18 45
-10 12 -25 53 -32 91 -13 68 -39 136 -112 295 -19 41 -40 89 -46 105 -13 33
-59 264 -74 365 -5 35 -18 88 -28 117 -15 44 -17 64 -10 116 5 34 5 79 1 100
-7 27 -6 37 4 37 9 0 14 63 18 268 7 298 19 514 41 737 8 83 20 202 25 265 11
130 35 209 88 283 19 27 38 58 42 70 12 32 153 100 296 145 l120 37 80 108
c95 127 189 224 342 354 62 52 123 111 135 131 12 21 72 89 133 152 97 101
118 128 167 225 31 61 72 157 91 215 33 99 104 248 193 405 26 46 73 104 140
170 136 136 149 146 229 190 113 61 129 77 180 177 44 86 47 98 47 168 0 76
-18 165 -45 216 -8 16 -35 42 -59 59 -25 16 -77 54 -117 84 -68 51 -71 55 -71
95 0 52 19 157 31 172 15 18 -8 124 -36 164 -14 20 -25 40 -25 46 0 23 -111
115 -185 153 -95 49 -354 141 -515 182 -89 23 -152 32 -280 40 -259 15 -470
45 -599 84 -113 35 -182 42 -246 25z m-626 -709 c-35 -56 -53 -71 -22 -18 36
59 47 76 51 73 1 -2 -12 -27 -29 -55z m-120 -113 c-8 -14 -14 -18 -17 -10 -4
13 17 46 25 38 3 -2 -1 -15 -8 -28z m2197 -84 c-6 -17 62 -120 111 -166 33
-32 153 -89 237 -113 49 -14 60 -15 72 -3 25 25 -26 86 -122 144 -11 7 -16 15
-13 18 9 9 86 -26 148 -68 59 -40 71 -43 71 -20 0 13 4 13 31 -3 40 -23 48
-40 55 -111 5 -45 3 -65 -9 -83 -9 -13 -23 -54 -33 -91 -10 -42 -26 -77 -41
-92 -27 -27 -144 -76 -231 -96 -63 -14 -80 -7 -25 10 98 32 180 87 160 107 -3
3 -43 -2 -89 -10 -145 -27 -184 -29 -256 -11 -47 11 -80 27 -112 53 -25 21
-55 43 -67 50 -13 6 -23 18 -23 25 0 8 -17 27 -37 44 -34 27 -37 34 -41 94 -3
54 1 76 29 147 43 109 64 139 118 168 52 27 76 30 67 7z m-356 -39 c7 -9 10
-18 7 -22 -8 -7 -37 15 -37 28 0 14 16 11 30 -6z m580 -770 c0 -16 -21 -47
-63 -92 -34 -38 -93 -103 -130 -145 -38 -43 -90 -92 -117 -109 -55 -36 -69
-58 -46 -75 23 -16 20 -34 -19 -133 -19 -49 -43 -120 -54 -157 -27 -96 -36
-118 -88 -206 -44 -74 -133 -175 -133 -150 0 6 9 34 20 62 23 58 26 90 8 90
-24 0 -35 -15 -91 -122 -69 -130 -165 -261 -232 -314 -27 -21 -98 -85 -159
-142 -88 -83 -126 -111 -194 -143 -182 -87 -352 -140 -352 -110 0 16 -52 14
-75 -3 -18 -13 -17 -15 14 -54 40 -51 57 -57 118 -38 26 8 100 30 163 50 63
19 117 33 120 30 10 -11 -37 -35 -105 -55 -38 -11 -113 -33 -165 -49 l-95 -28
-15 21 c-8 12 -31 40 -51 61 -30 33 -40 38 -62 32 -18 -4 -27 -13 -27 -26 0
-20 18 -35 85 -75 l39 -23 -44 -12 c-25 -6 -70 -19 -102 -30 l-56 -18 -34 35
c-18 19 -68 55 -110 80 -76 44 -78 47 -78 84 0 20 9 58 19 83 11 25 41 121 66
213 67 243 83 287 117 334 17 23 42 76 55 118 55 167 178 371 303 504 81 85
98 98 172 130 51 21 143 47 238 67 l155 32 77 -41 c42 -23 82 -48 88 -56 7 -8
28 -18 49 -21 20 -4 46 -14 59 -22 32 -21 42 -5 12 18 -37 28 -16 44 41 31 65
-15 109 -14 109 3 0 15 -51 58 -81 69 -20 7 -28 36 -18 64 10 28 72 46 252 78
188 32 266 69 149 70 -199 2 -292 6 -292 14 0 14 88 47 170 65 41 9 136 20
210 25 74 4 145 9 158 10 17 1 22 -4 22 -24z m-2010 -949 c0 -3 -4 -8 -10 -11
-5 -3 -10 -1 -10 4 0 6 5 11 10 11 6 0 10 -2 10 -4z m-90 -1644 c0 -47 25
-242 45 -347 14 -80 14 -306 0 -767 -4 -136 -3 -158 10 -158 8 0 15 -4 15 -10
0 -5 -8 -10 -19 -10 -24 0 -31 -35 -31 -157 0 -119 -16 -264 -40 -373 -18 -82
-31 -161 -51 -319 -5 -40 -18 -118 -29 -171 -11 -54 -20 -106 -20 -117 0 -44
-25 -97 -67 -146 -75 -84 -76 -82 -69 90 4 81 3 267 -2 413 -5 152 -6 344 -1
450 5 102 13 316 19 475 5 161 16 334 25 390 8 55 22 150 30 210 8 61 19 126
25 145 5 19 10 53 10 76 0 51 29 159 64 244 55 128 86 158 86 82z m320 -2116
c0 -3 -4 -8 -10 -11 -5 -3 -10 -1 -10 4 0 6 5 11 10 11 6 0 10 -2 10 -4z
m-229 -33 c13 -15 12 -15 -8 -4 -24 12 -29 21 -14 21 5 0 15 -7 22 -17z m-325
-820 c-10 -10 -19 5 -10 18 6 11 8 11 12 0 2 -7 1 -15 -2 -18z m-496 -4783 c0
-5 -5 -10 -11 -10 -5 0 -7 5 -4 10 3 6 8 10 11 10 2 0 4 -4 4 -10z m3122 -252
c-9 -9 -15 -9 -24 0 -9 9 -7 12 12 12 19 0 21 -3 12 -12z m-22 -32 c0 -3 -4
-8 -10 -11 -5 -3 -10 -1 -10 4 0 6 5 11 10 11 6 0 10 -2 10 -4z m-65 -46 c4
-6 -5 -10 -19 -10 -14 0 -26 5 -26 10 0 6 9 10 19 10 11 0 23 -4 26 -10z m234
-20 c24 0 90 -31 91 -43 0 -12 -48 -27 -90 -27 -34 0 -41 4 -46 25 -6 24 -14
29 -41 26 -20 -3 -24 17 -7 33 14 14 18 14 44 1 16 -8 38 -15 49 -15z"/>
<path d="M1505 9471 c-58 -10 -85 -28 -85 -56 0 -35 34 -53 115 -60 94 -9 126
-20 160 -55 35 -37 58 -38 91 -5 l25 25 -20 39 c-49 95 -150 135 -286 112z"/>
<path d="M2338 5014 c-21 -20 -4 -32 56 -38 63 -6 96 -1 96 14 0 4 -6 10 -14
13 -27 11 -131 19 -138 11z"/>
<path d="M2410 4919 c-10 -18 -6 -26 31 -60 45 -41 73 -49 83 -23 9 22 10 20
-30 64 -40 44 -68 51 -84 19z"/>
<path d="M2792 4098 c-19 -19 -14 -73 9 -102 26 -33 41 -33 81 3 29 26 31 32
20 48 -6 10 -16 28 -22 41 -7 16 -18 22 -43 22 -18 0 -38 -5 -45 -12z"/>
<path d="M3530 3549 c0 -5 5 -7 10 -4 6 3 10 8 10 11 0 2 -4 4 -10 4 -5 0 -10
-5 -10 -11z"/>
<path d="M3782 2559 c-48 -9 -88 -34 -149 -93 -45 -42 -53 -66 -30 -85 16 -13
202 17 289 47 63 21 99 62 77 88 -19 23 -88 54 -119 53 -14 -1 -44 -5 -68 -10z"/>
<path d="M327 2534 c-8 -8 3 -34 14 -34 11 0 12 27 0 34 -4 3 -11 3 -14 0z"/>
<path d="M820 2484 c-36 -33 -40 -41 -40 -83 0 -65 21 -93 68 -89 36 3 37 4
35 41 -2 35 -1 37 21 31 32 -8 63 34 47 64 -12 23 -68 72 -82 72 -5 0 -27 -16
-49 -36z"/>
<path d="M3825 2386 c-59 -14 -84 -27 -108 -54 -30 -33 -18 -55 38 -73 45 -14
50 -19 53 -48 5 -44 -17 -66 -92 -90 -102 -34 -363 -81 -501 -91 -153 -11
-228 -29 -310 -74 -33 -18 -83 -36 -110 -40 -69 -10 -186 -52 -345 -124 -74
-34 -172 -71 -218 -83 -141 -36 -202 -102 -128 -137 26 -13 35 -11 125 31 53
24 125 54 161 65 274 85 584 189 627 209 70 33 307 80 473 94 74 6 178 20 230
32 79 18 124 22 265 21 94 -1 197 -7 229 -14 109 -22 241 -38 250 -29 6 5 -6
39 -30 86 -38 76 -41 79 -110 113 -39 19 -101 59 -137 88 -36 28 -96 70 -133
92 -59 34 -77 40 -124 39 -30 0 -77 -6 -105 -13z"/>
<path d="M1800 1496 c-99 -37 -210 -106 -210 -131 0 -27 -19 -25 -65 7 -36 26
-49 30 -63 22 -24 -16 -27 -42 -6 -65 16 -18 16 -20 1 -32 -29 -22 -26 -61 7
-82 22 -15 27 -15 55 0 17 8 34 26 37 40 3 14 9 25 13 25 4 0 13 11 19 25 7
16 20 25 34 25 30 1 248 111 262 132 7 12 6 21 -3 32 -16 19 -34 19 -81 2z"/>
<path d="M3705 1270 c-23 -37 43 -78 139 -87 53 -5 64 -2 86 16 24 20 24 22 6
35 -39 31 -217 58 -231 36z"/>
</g>
</svg>
