<svg xmlns="http://www.w3.org/2000/svg" width="56" height="56" viewBox="0 0 40 40" fill="none">
<path d="M0 20C0 8.95431 8.95431 0 20 0C31.0457 0 40 8.95431 40 20C40 31.0457 31.0457 40 20 40C8.95431 40 0 31.0457 0 20Z" fill="url(#paint0_linear_1113_1381)"/>
<path d="M17 9V11H23V9H25V11H29C29.2652 11 29.5196 11.1054 29.7071 11.2929C29.8946 11.4804 30 11.7348 30 12V28C30 28.2652 29.8946 28.5196 29.7071 28.7071C29.5196 28.8946 29.2652 29 29 29H11C10.7348 29 10.4804 28.8946 10.2929 28.7071C10.1054 28.5196 10 28.2652 10 28V12C10 11.7348 10.1054 11.4804 10.2929 11.2929C10.4804 11.1054 10.7348 11 11 11H15V9H17ZM28 18H12V27H28V18ZM23.036 19.136L24.45 20.55L19.5 25.5L15.964 21.964L17.38 20.55L19.501 22.672L23.037 19.136H23.036ZM15 13H12V16H28V13H25V14H23V13H17V14H15V13Z" fill="white"/>
<defs>
<linearGradient id="paint0_linear_1113_1381" x1="-2.5" y1="37.5" x2="40" y2="6" gradientUnits="userSpaceOnUse">
<stop stop-color="#FF4400"/>
<stop offset="0.536458" stop-color="#FF6025"/>
<stop offset="1" stop-color="#FF7C4B"/>
</linearGradient>
</defs>
</svg>