<svg xmlns="http://www.w3.org/2000/svg" width="56" height="56" viewBox="0 0 40 40" fill="none">
<path d="M0 20C0 8.95431 8.95431 0 20 0C31.0457 0 40 8.95431 40 20C40 31.0457 31.0457 40 20 40C8.95431 40 0 31.0457 0 20Z" fill="url(#paint0_linear_1113_1353)"/>
<path d="M11.6466 22.7753L15.3888 19.0331L18.4996 22.145L21.9723 18.6723L20 16.7H25.5V22.2L23.5277 20.2277L18.4996 25.2558L15.3888 22.145L12.6663 24.8664C13.9021 26.7263 15.7987 28.0469 17.9719 28.5606C20.145 29.0742 22.4322 28.7425 24.3699 27.6326C26.3076 26.5227 27.7508 24.7176 28.4072 22.5833C29.0636 20.4489 28.884 18.1447 27.9049 16.1378C26.9257 14.1309 25.2202 12.5713 23.1339 11.775C21.0477 10.9787 18.7368 11.0054 16.6694 11.8495C14.6021 12.6937 12.9329 14.2922 12.0003 16.3211C11.0676 18.3501 10.9412 20.6577 11.6466 22.7764V22.7753ZM9.95481 24.4891L9.94381 24.4781L9.94821 24.4737C9.32113 23.0657 8.99803 21.5413 9.00001 20C9.00001 13.9247 13.9247 9 20 9C26.0753 9 31 13.9247 31 20C31 26.0753 26.0753 31 20 31C15.523 31 11.673 28.327 9.95481 24.4891Z" fill="white"/>
<defs>
<linearGradient id="paint0_linear_1113_1353" x1="-2.5" y1="37.5" x2="40" y2="6" gradientUnits="userSpaceOnUse">
<stop stop-color="#FF4400"/>
<stop offset="0.536458" stop-color="#FF6025"/>
<stop offset="1" stop-color="#FF7C4B"/>
</linearGradient>
</defs>
</svg>