<svg xmlns="http://www.w3.org/2000/svg" width="56" height="56" viewBox="0 0 40 40" fill="none">
<path d="M0 20C0 8.95431 8.95431 0 20 0C31.0457 0 40 8.95431 40 20C40 31.0457 31.0457 40 20 40C8.95431 40 0 31.0457 0 20Z" fill="url(#paint0_linear_1113_1424)"/>
<path fill-rule="evenodd" clip-rule="evenodd" d="M14.3098 9.91675C13.8724 9.91675 13.496 10.2257 13.4107 10.6547L10.9157 23.2075C10.3985 25.8093 12.3759 28.2501 15.0305 28.2501H27.24C27.9584 28.2501 28.6493 27.8008 28.8867 27.0678C29.0971 26.4222 29.1939 25.73 29.16 25.0131L29.1599 25.0108C29.0229 22.2641 26.8693 19.9571 24.1355 19.6652C22.3883 19.4785 20.7833 20.0966 19.6373 21.1936L18.4089 16.621L21.4046 14.4649C21.7847 14.1914 21.8975 13.6754 21.6663 13.2682L20.0264 10.3807C19.8635 10.0939 19.5591 9.91675 19.2293 9.91675H14.3098ZM16.5244 16.6726L15.6338 15.5184C15.3246 15.1176 15.3988 14.5419 15.7996 14.2327C16.2004 13.9234 16.7761 13.9976 17.0853 14.3984L17.5399 14.9876L19.6655 13.4578L18.6957 11.7501H15.0622L12.7138 23.5649C12.4193 25.0468 13.5461 26.4167 15.0305 26.4167H27.1696C27.2933 26.0058 27.3506 25.564 27.3288 25.1007C27.2355 23.2444 25.7654 21.683 23.9408 21.4882C22.0135 21.2823 20.3359 22.5241 19.855 24.2761C19.721 24.7643 19.2166 25.0514 18.7284 24.9174C18.2402 24.7834 17.9531 24.279 18.0871 23.7908C18.1414 23.5928 18.2062 23.3992 18.2807 23.2105L16.5244 16.6726Z" fill="white"/>
<defs>
<linearGradient id="paint0_linear_1113_1424" x1="-2.5" y1="37.5" x2="40" y2="6" gradientUnits="userSpaceOnUse">
<stop stop-color="#FF4400"/>
<stop offset="0.536458" stop-color="#FF6025"/>
<stop offset="1" stop-color="#FF7C4B"/>
</linearGradient>
</defs>
</svg>