<svg width="423" height="717" viewBox="0 0 423 717" fill="none" xmlns="http://www.w3.org/2000/svg">
<g filter="url(#filter0_f)">
<path d="M97 640L215.242 97L326 640H97Z" fill="#698CDB" fill-opacity="0.4"/>
</g>
<path d="M323 638C323 639.147 322.41 640.386 321.023 641.711C319.636 643.036 317.536 644.363 314.74 645.656C309.153 648.239 301.005 650.591 290.858 652.575C270.579 656.54 242.522 659 211.5 659C180.478 659 152.421 656.54 132.142 652.575C121.995 650.591 113.847 648.239 108.26 645.656C105.464 644.363 103.364 643.036 101.976 641.711C100.59 640.386 100 639.147 100 638C100 636.853 100.59 635.614 101.976 634.289C103.364 632.964 105.464 631.637 108.26 630.344C113.847 627.761 121.995 625.409 132.142 623.425C152.421 619.46 180.478 617 211.5 617C242.522 617 270.579 619.46 290.858 623.425C301.005 625.409 309.153 627.761 314.74 630.344C317.536 631.637 319.636 632.964 321.023 634.289C322.41 635.614 323 636.853 323 638Z" stroke="#779FF9" stroke-width="2"/>
<path d="M307 638C307 638.468 306.666 639.151 305.461 640.006C304.289 640.837 302.497 641.679 300.092 642.504C295.296 644.149 288.301 645.646 279.592 646.91C262.19 649.435 238.115 651 211.5 651C184.885 651 160.81 649.435 143.408 646.91C134.699 645.646 127.704 644.149 122.908 642.504C120.503 641.679 118.711 640.837 117.539 640.006C116.334 639.151 116 638.468 116 638C116 637.532 116.334 636.849 117.539 635.994C118.711 635.163 120.503 634.321 122.908 633.496C127.704 631.851 134.699 630.354 143.408 629.09C160.81 626.565 184.885 625 211.5 625C238.115 625 262.19 626.565 279.592 629.09C288.301 630.354 295.296 631.851 300.092 633.496C302.497 634.321 304.289 635.163 305.461 635.994C306.666 636.849 307 637.532 307 638Z" stroke="#779FF9" stroke-width="2"/>
<defs>
<filter id="filter0_f" x="0" y="0" width="423" height="737" filterUnits="userSpaceOnUse" color-interpolation-filters="sRGB">
<feFlood flood-opacity="0" result="BackgroundImageFix"/>
<feBlend mode="normal" in="SourceGraphic" in2="BackgroundImageFix" result="shape"/>
<feGaussianBlur stdDeviation="48.5" result="effect1_foregroundBlur"/>
</filter>
</defs>
</svg>
