<svg xmlns="http://www.w3.org/2000/svg" viewBox="0 0 327 176" width="327" height="176" preserveAspectRatio="xMidYMid meet" style="width: 100%; height: 100%; transform: translate3d(0px, 0px, 0px); content-visibility: visible;"><defs><clipPath id="__lottie_element_69"><rect width="327" height="176" x="0" y="0"></rect></clipPath></defs><g clip-path="url(#__lottie_element_69)"><g transform="matrix(1,0,0,1,-0.25,-0.25)" opacity="1" style="display: block;"><g opacity="1" transform="matrix(1,0,0,1,163.75,88.25)"><path fill="rgb(18,18,18)" fill-opacity="1" d=" M-163.5,88 C-163.5,88 163.5,88 163.5,88 C163.5,88 163.5,-88 163.5,-88 C163.5,-88 -163.5,-88 -163.5,-88 C-163.5,-88 -163.5,88 -163.5,88z"></path><path fill="rgb(18,18,18)" fill-opacity="1" d=" M-163.5,88 C-163.5,88 163.5,88 163.5,88 C163.5,88 163.5,-88 163.5,-88 C163.5,-88 -163.5,-88 -163.5,-88 C-163.5,-88 -163.5,88 -163.5,88z"></path></g><g opacity="1" transform="matrix(1,0,0,1,13.375,72.25)"><path fill="rgb(18,18,18)" fill-opacity="1" d=" M-13.125,72 C-13.125,72 13.125,72 13.125,72 C13.125,72 13.125,-72 13.125,-72 C13.125,-72 -13.125,-72 -13.125,-72 C-13.125,-72 -13.125,72 -13.125,72z"></path></g><g opacity="1" transform="matrix(1,0,0,1,39.625,72.25)"><path fill="rgb(30,30,30)" fill-opacity="1" d=" M-13.12399959564209,72 C-13.12399959564209,72 13.12399959564209,72 13.12399959564209,72 C13.12399959564209,72 13.12399959564209,-72 13.12399959564209,-72 C13.12399959564209,-72 -13.12399959564209,-72 -13.12399959564209,-72 C-13.12399959564209,-72 -13.12399959564209,72 -13.12399959564209,72z"></path></g><g opacity="1" transform="matrix(1,0,0,1,65.875,72.25)"><path fill="rgb(18,18,18)" fill-opacity="1" d=" M-13.125,72 C-13.125,72 13.125,72 13.125,72 C13.125,72 13.125,-72 13.125,-72 C13.125,-72 -13.125,-72 -13.125,-72 C-13.125,-72 -13.125,72 -13.125,72z"></path></g><g opacity="1" transform="matrix(1,0,0,1,92.125,72.25)"><path fill="rgb(30,30,30)" fill-opacity="1" d=" M-13.125,72 C-13.125,72 13.125,72 13.125,72 C13.125,72 13.125,-72 13.125,-72 C13.125,-72 -13.125,-72 -13.125,-72 C-13.125,-72 -13.125,72 -13.125,72z"></path></g><g opacity="1" transform="matrix(1,0,0,1,118.3740005493164,72.25)"><path fill="rgb(18,18,18)" fill-opacity="1" d=" M-13.12399959564209,72 C-13.12399959564209,72 13.12399959564209,72 13.12399959564209,72 C13.12399959564209,72 13.12399959564209,-72 13.12399959564209,-72 C13.12399959564209,-72 -13.12399959564209,-72 -13.12399959564209,-72 C-13.12399959564209,-72 -13.12399959564209,72 -13.12399959564209,72z"></path></g><g opacity="1" transform="matrix(1,0,0,1,144.625,72.25)"><path fill="rgb(30,30,30)" fill-opacity="1" d=" M-13.125,72 C-13.125,72 13.125,72 13.125,72 C13.125,72 13.125,-72 13.125,-72 C13.125,-72 -13.125,-72 -13.125,-72 C-13.125,-72 -13.125,72 -13.125,72z"></path></g><g opacity="1" transform="matrix(1,0,0,1,170.875,72.25)"><path fill="rgb(18,18,18)" fill-opacity="1" d=" M-13.125,72 C-13.125,72 13.125,72 13.125,72 C13.125,72 13.125,-72 13.125,-72 C13.125,-72 -13.125,-72 -13.125,-72 C-13.125,-72 -13.125,72 -13.125,72z"></path></g><g opacity="1" transform="matrix(1,0,0,1,197.12399291992188,72.25)"><path fill="rgb(30,30,30)" fill-opacity="1" d=" M-13.12399959564209,72 C-13.12399959564209,72 13.12399959564209,72 13.12399959564209,72 C13.12399959564209,72 13.12399959564209,-72 13.12399959564209,-72 C13.12399959564209,-72 -13.12399959564209,-72 -13.12399959564209,-72 C-13.12399959564209,-72 -13.12399959564209,72 -13.12399959564209,72z"></path></g><g opacity="1" transform="matrix(1,0,0,1,223.375,72.25)"><path fill="rgb(18,18,18)" fill-opacity="1" d=" M-13.125,72 C-13.125,72 13.125,72 13.125,72 C13.125,72 13.125,-72 13.125,-72 C13.125,-72 -13.125,-72 -13.125,-72 C-13.125,-72 -13.125,72 -13.125,72z"></path></g><g opacity="1" transform="matrix(1,0,0,1,249.625,72.25)"><path fill="rgb(30,30,30)" fill-opacity="1" d=" M-13.125,72 C-13.125,72 13.125,72 13.125,72 C13.125,72 13.125,-72 13.125,-72 C13.125,-72 -13.125,-72 -13.125,-72 C-13.125,-72 -13.125,72 -13.125,72z"></path></g><g opacity="1" transform="matrix(1,0,0,1,275.875,72.25)"><path fill="rgb(18,18,18)" fill-opacity="1" d=" M-13.125,72 C-13.125,72 13.12399959564209,72 13.12399959564209,72 C13.12399959564209,72 13.12399959564209,-72 13.12399959564209,-72 C13.12399959564209,-72 -13.125,-72 -13.125,-72 C-13.125,-72 -13.125,72 -13.125,72z"></path></g><g opacity="1" transform="matrix(1,0,0,1,302.125,72.25)"><path fill="rgb(30,30,30)" fill-opacity="1" d=" M-13.125,72 C-13.125,72 13.125,72 13.125,72 C13.125,72 13.125,-72 13.125,-72 C13.125,-72 -13.125,-72 -13.125,-72 C-13.125,-72 -13.125,72 -13.125,72z"></path></g></g><g transform="matrix(1,0,0,1,0.3900012969970703,40.60200119018555)" opacity="1" style="display: block;"><g opacity="1" transform="matrix(1,0,0,1,22.632999420166016,4.888999938964844)"><path fill="rgb(255,255,255)" fill-opacity="1" d=" M-14.690999984741211,-1.2730000019073486 C-14.958999633789062,-3.2119998931884766 -16.45199966430664,-4.336999893188477 -18.386999130249023,-4.336999893188477 C-20.66699981689453,-4.336999893188477 -22.382999420166016,-2.674999952316284 -22.382999420166016,0.1459999978542328 C-22.382999420166016,2.9630000591278076 -20.687999725341797,4.630000114440918 -18.386999130249023,4.630000114440918 C-16.312000274658203,4.630000114440918 -14.934000015258789,3.2869999408721924 -14.690999984741211,1.621000051498413 C-14.690999984741211,1.621000051498413 -16.285999298095703,1.6130000352859497 -16.285999298095703,1.6130000352859497 C-16.486000061035156,2.634999990463257 -17.320999145507812,3.2100000381469727 -18.364999771118164,3.2100000381469727 C-19.780000686645508,3.2100000381469727 -20.79400062561035,2.1489999294281006 -20.79400062561035,0.1459999978542328 C-20.79400062561035,-1.8229999542236328 -19.788999557495117,-2.9170000553131104 -18.361000061035156,-2.9170000553131104 C-17.299999237060547,-2.9170000553131104 -16.4689998626709,-2.316999912261963 -16.285999298095703,-1.2730000019073486 C-16.285999298095703,-1.2730000019073486 -14.690999984741211,-1.2730000019073486 -14.690999984741211,-1.2730000019073486z M-10.432000160217285,4.638999938964844 C-8.515000343322754,4.638999938964844 -7.296000003814697,3.2880001068115234 -7.296000003814697,1.2640000581741333 C-7.296000003814697,-0.7639999985694885 -8.515000343322754,-2.119999885559082 -10.432000160217285,-2.119999885559082 C-12.350000381469727,-2.119999885559082 -13.569999694824219,-0.7639999985694885 -13.569999694824219,1.2640000581741333 C-13.569999694824219,3.2880001068115234 -12.350000381469727,4.638999938964844 -10.432000160217285,4.638999938964844z M-10.423999786376953,3.4019999504089355 C-11.484999656677246,3.4019999504089355 -12.005000114440918,2.4560000896453857 -12.005000114440918,1.2589999437332153 C-12.005000114440918,0.061000000685453415 -11.484999656677246,-0.8980000019073486 -10.423999786376953,-0.8980000019073486 C-9.380000114440918,-0.8980000019073486 -8.861000061035156,0.061000000685453415 -8.861000061035156,1.2589999437332153 C-8.861000061035156,2.4560000896453857 -9.380000114440918,3.4019999504089355 -10.423999786376953,3.4019999504089355z M-5.961999893188477,4.510000228881836 C-5.961999893188477,4.510000228881836 -4.421000003814697,4.510000228881836 -4.421000003814697,4.510000228881836 C-4.421000003814697,4.510000228881836 -4.421000003814697,0.6620000004768372 -4.421000003814697,0.6620000004768372 C-4.421000003814697,-0.16899999976158142 -3.7939999103546143,-0.7570000290870667 -2.947000026702881,-0.7570000290870667 C-2.687000036239624,-0.7570000290870667 -2.361999988555908,-0.7089999914169312 -2.2300000190734863,-0.6669999957084656 C-2.2300000190734863,-0.6669999957084656 -2.2300000190734863,-2.0869998931884766 -2.2300000190734863,-2.0869998931884766 C-2.369999885559082,-2.111999988555908 -2.614000082015991,-2.128999948501587 -2.7850000858306885,-2.128999948501587 C-3.5350000858306885,-2.128999948501587 -4.159999847412109,-1.7029999494552612 -4.3979997634887695,-0.9449999928474426 C-4.3979997634887695,-0.9449999928474426 -4.4670000076293945,-0.9449999928474426 -4.4670000076293945,-0.9449999928474426 C-4.4670000076293945,-0.9449999928474426 -4.4670000076293945,-2.0350000858306885 -4.4670000076293945,-2.0350000858306885 C-4.4670000076293945,-2.0350000858306885 -5.961999893188477,-2.0350000858306885 -5.961999893188477,-2.0350000858306885 C-5.961999893188477,-2.0350000858306885 -5.961999893188477,4.510000228881836 -5.961999893188477,4.510000228881836z M2.438999891281128,-2.0350000858306885 C2.438999891281128,-2.0350000858306885 1.1480000019073486,-2.0350000858306885 1.1480000019073486,-2.0350000858306885 C1.1480000019073486,-2.0350000858306885 1.1480000019073486,-3.6040000915527344 1.1480000019073486,-3.6040000915527344 C1.1480000019073486,-3.6040000915527344 -0.39500001072883606,-3.6040000915527344 -0.39500001072883606,-3.6040000915527344 C-0.39500001072883606,-3.6040000915527344 -0.39500001072883606,-2.0350000858306885 -0.39500001072883606,-2.0350000858306885 C-0.39500001072883606,-2.0350000858306885 -1.3240000009536743,-2.0350000858306885 -1.3240000009536743,-2.0350000858306885 C-1.3240000009536743,-2.0350000858306885 -1.3240000009536743,-0.8420000076293945 -1.3240000009536743,-0.8420000076293945 C-1.3240000009536743,-0.8420000076293945 -0.39500001072883606,-0.8420000076293945 -0.39500001072883606,-0.8420000076293945 C-0.39500001072883606,-0.8420000076293945 -0.39500001072883606,2.7980000972747803 -0.39500001072883606,2.7980000972747803 C-0.40299999713897705,4.03000020980835 0.4909999966621399,4.635000228881836 1.649999976158142,4.599999904632568 C2.0889999866485596,4.5879998207092285 2.3919999599456787,4.502999782562256 2.559000015258789,4.447000026702881 C2.559000015258789,4.447000026702881 2.2990000247955322,3.240999937057495 2.2990000247955322,3.240999937057495 C2.2130000591278076,3.26200008392334 2.0380001068115234,3.3010001182556152 1.8459999561309814,3.3010001182556152 C1.4579999446868896,3.3010001182556152 1.1480000019073486,3.1640000343322754 1.1480000019073486,2.5420000553131104 C1.1480000019073486,2.5420000553131104 1.1480000019073486,-0.8420000076293945 1.1480000019073486,-0.8420000076293945 C1.1480000019073486,-0.8420000076293945 2.438999891281128,-0.8420000076293945 2.438999891281128,-0.8420000076293945 C2.438999891281128,-0.8420000076293945 2.438999891281128,-2.0350000858306885 2.438999891281128,-2.0350000858306885z M3.753000020980835,4.510000228881836 C3.753000020980835,4.510000228881836 5.294000148773193,4.510000228881836 5.294000148773193,4.510000228881836 C5.294000148773193,4.510000228881836 5.294000148773193,-2.0350000858306885 5.294000148773193,-2.0350000858306885 C5.294000148773193,-2.0350000858306885 3.753000020980835,-2.0350000858306885 3.753000020980835,-2.0350000858306885 C3.753000020980835,-2.0350000858306885 3.753000020980835,4.510000228881836 3.753000020980835,4.510000228881836z M4.5289998054504395,-2.9649999141693115 C5.019000053405762,-2.9649999141693115 5.419000148773193,-3.3389999866485596 5.419000148773193,-3.7990000247955322 C5.419000148773193,-4.263000011444092 5.019000053405762,-4.638999938964844 4.5289998054504395,-4.638999938964844 C4.034999847412109,-4.638999938964844 3.632999897003174,-4.263000011444092 3.632999897003174,-3.7990000247955322 C3.632999897003174,-3.3389999866485596 4.034999847412109,-2.9649999141693115 4.5289998054504395,-2.9649999141693115z M12.079000473022461,-0.3050000071525574 C11.866000175476074,-1.4129999876022339 10.979000091552734,-2.119999885559082 9.444999694824219,-2.119999885559082 C7.868000030517578,-2.119999885559082 6.794000148773193,-1.3450000286102295 6.798999786376953,-0.13500000536441803 C6.794000148773193,0.8199999928474426 7.382999897003174,1.4500000476837158 8.640999794006348,1.7100000381469727 C8.640999794006348,1.7100000381469727 9.756999969482422,1.9450000524520874 9.756999969482422,1.9450000524520874 C10.357999801635742,2.0769999027252197 10.638999938964844,2.321000099182129 10.638999938964844,2.690999984741211 C10.638999938964844,3.1389999389648438 10.152999877929688,3.4749999046325684 9.420000076293945,3.4749999046325684 C8.713000297546387,3.4749999046325684 8.251999855041504,3.1689999103546143 8.119999885559082,2.5810000896453857 C8.119999885559082,2.5810000896453857 6.617000102996826,2.7249999046325684 6.617000102996826,2.7249999046325684 C6.808000087738037,3.927000045776367 7.816999912261963,4.638999938964844 9.423999786376953,4.638999938964844 C11.0600004196167,4.638999938964844 12.21500015258789,3.7909998893737793 12.218999862670898,2.5510001182556152 C12.21500015258789,1.6169999837875366 11.614999771118164,1.0460000038146973 10.378999710083008,0.7770000100135803 C10.378999710083008,0.7770000100135803 9.26200008392334,0.5379999876022339 9.26200008392334,0.5379999876022339 C8.597000122070312,0.3889999985694885 8.333999633789062,0.1599999964237213 8.338000297546387,-0.21899999678134918 C8.333999633789062,-0.6620000004768372 8.824000358581543,-0.968999981880188 9.467000007629395,-0.968999981880188 C10.178999900817871,-0.968999981880188 10.553999900817871,-0.5820000171661377 10.67300033569336,-0.15199999511241913 C10.67300033569336,-0.15199999511241913 12.079000473022461,-0.3050000071525574 12.079000473022461,-0.3050000071525574z M16.3700008392334,4.638999938964844 C18.288000106811523,4.638999938964844 19.507999420166016,3.2880001068115234 19.507999420166016,1.2640000581741333 C19.507999420166016,-0.7639999985694885 18.288000106811523,-2.119999885559082 16.3700008392334,-2.119999885559082 C14.45300006866455,-2.119999885559082 13.234000205993652,-0.7639999985694885 13.234000205993652,1.2640000581741333 C13.234000205993652,3.2880001068115234 14.45300006866455,4.638999938964844 16.3700008392334,4.638999938964844z M16.3799991607666,3.4019999504089355 C15.319000244140625,3.4019999504089355 14.798999786376953,2.4560000896453857 14.798999786376953,1.2589999437332153 C14.798999786376953,0.061000000685453415 15.319000244140625,-0.8980000019073486 16.3799991607666,-0.8980000019073486 C17.423999786376953,-0.8980000019073486 17.94300079345703,0.061000000685453415 17.94300079345703,1.2589999437332153 C17.94300079345703,2.4560000896453857 17.423999786376953,3.4019999504089355 16.3799991607666,3.4019999504089355z M22.382999420166016,-4.2170000076293945 C22.382999420166016,-4.2170000076293945 20.84000015258789,-4.2170000076293945 20.84000015258789,-4.2170000076293945 C20.84000015258789,-4.2170000076293945 20.84000015258789,4.510000228881836 20.84000015258789,4.510000228881836 C20.84000015258789,4.510000228881836 22.382999420166016,4.510000228881836 22.382999420166016,4.510000228881836 C22.382999420166016,4.510000228881836 22.382999420166016,-4.2170000076293945 22.382999420166016,-4.2170000076293945z"></path></g></g><g transform="matrix(1,0,0,1,0.9820003509521484,154.56700134277344)" opacity="1" style="display: block;"><g opacity="1" transform="matrix(1,0,0,1,14.399999618530273,5.421000003814697)"><path fill="rgb(179,179,179)" fill-opacity="1" d=" M-6.076000213623047,-5.171000003814697 C-6.076000213623047,-5.171000003814697 -7.289000034332275,-5.171000003814697 -7.289000034332275,-5.171000003814697 C-7.289000034332275,-5.171000003814697 -7.289000034332275,2.8440001010894775 -7.289000034332275,2.8440001010894775 C-7.289000034332275,2.8440001010894775 -7.388000011444092,2.8440001010894775 -7.388000011444092,2.8440001010894775 C-7.388000011444092,2.8440001010894775 -12.956000328063965,-5.171000003814697 -12.956000328063965,-5.171000003814697 C-12.956000328063965,-5.171000003814697 -14.149999618530273,-5.171000003814697 -14.149999618530273,-5.171000003814697 C-14.149999618530273,-5.171000003814697 -14.149999618530273,5.01200008392334 -14.149999618530273,5.01200008392334 C-14.149999618530273,5.01200008392334 -12.916999816894531,5.01200008392334 -12.916999816894531,5.01200008392334 C-12.916999816894531,5.01200008392334 -12.916999816894531,-2.9820001125335693 -12.916999816894531,-2.9820001125335693 C-12.916999816894531,-2.9820001125335693 -12.817000389099121,-2.9820001125335693 -12.817000389099121,-2.9820001125335693 C-12.817000389099121,-2.9820001125335693 -7.269000053405762,5.01200008392334 -7.269000053405762,5.01200008392334 C-7.269000053405762,5.01200008392334 -6.076000213623047,5.01200008392334 -6.076000213623047,5.01200008392334 C-6.076000213623047,5.01200008392334 -6.076000213623047,-5.171000003814697 -6.076000213623047,-5.171000003814697z M-0.6650000214576721,5.171000003814697 C1.402999997138977,5.171000003814697 2.7950000762939453,3.5999999046325684 2.7950000762939453,1.2339999675750732 C2.7950000762939453,-1.152999997138977 1.402999997138977,-2.7249999046325684 -0.6650000214576721,-2.7249999046325684 C-2.7339999675750732,-2.7249999046325684 -4.125999927520752,-1.152999997138977 -4.125999927520752,1.2339999675750732 C-4.125999927520752,3.5999999046325684 -2.7339999675750732,5.171000003814697 -0.6650000214576721,5.171000003814697z M-0.6650000214576721,4.117000102996826 C-2.2360000610351562,4.117000102996826 -2.9519999027252197,2.765000104904175 -2.9519999027252197,1.2339999675750732 C-2.9519999027252197,-0.2980000078678131 -2.2360000610351562,-1.6710000038146973 -0.6650000214576721,-1.6710000038146973 C0.906000018119812,-1.6710000038146973 1.621000051498413,-0.2980000078678131 1.621000051498413,1.2339999675750732 C1.621000051498413,2.765000104904175 0.906000018119812,4.117000102996826 -0.6650000214576721,4.117000102996826z M6.056000232696533,5.01200008392334 C6.056000232696533,5.01200008392334 7.210000038146973,5.01200008392334 7.210000038146973,5.01200008392334 C7.210000038146973,5.01200008392334 8.880000114440918,-0.8550000190734863 8.880000114440918,-0.8550000190734863 C8.880000114440918,-0.8550000190734863 8.99899959564209,-0.8550000190734863 8.99899959564209,-0.8550000190734863 C8.99899959564209,-0.8550000190734863 10.670000076293945,5.01200008392334 10.670000076293945,5.01200008392334 C10.670000076293945,5.01200008392334 11.822999954223633,5.01200008392334 11.822999954223633,5.01200008392334 C11.822999954223633,5.01200008392334 14.149999618530273,-2.624000072479248 14.149999618530273,-2.624000072479248 C14.149999618530273,-2.624000072479248 12.916999816894531,-2.624000072479248 12.916999816894531,-2.624000072479248 C12.916999816894531,-2.624000072479248 11.265999794006348,3.2019999027252197 11.265999794006348,3.2019999027252197 C11.265999794006348,3.2019999027252197 11.187000274658203,3.2019999027252197 11.187000274658203,3.2019999027252197 C11.187000274658203,3.2019999027252197 9.576000213623047,-2.624000072479248 9.576000213623047,-2.624000072479248 C9.576000213623047,-2.624000072479248 8.322999954223633,-2.624000072479248 8.322999954223633,-2.624000072479248 C8.322999954223633,-2.624000072479248 6.692999839782715,3.2209999561309814 6.692999839782715,3.2209999561309814 C6.692999839782715,3.2209999561309814 6.61299991607666,3.2209999561309814 6.61299991607666,3.2209999561309814 C6.61299991607666,3.2209999561309814 4.9629998207092285,-2.624000072479248 4.9629998207092285,-2.624000072479248 C4.9629998207092285,-2.624000072479248 3.7290000915527344,-2.624000072479248 3.7290000915527344,-2.624000072479248 C3.7290000915527344,-2.624000072479248 6.056000232696533,5.01200008392334 6.056000232696533,5.01200008392334z"></path></g></g><g transform="matrix(1,0,0,1,253.4239959716797,154.42800903320312)" opacity="1" style="display: block;"><g opacity="1" transform="matrix(1,0,0,1,30.566999435424805,5.493000030517578)"><path fill="rgb(179,179,179)" fill-opacity="1" d=" M-26.777000427246094,5.2170000076293945 C-24.718000411987305,5.243000030517578 -23.375999450683594,3.691999912261963 -23.375999450683594,1.7979999780654907 C-23.375999450683594,-0.17100000381469727 -24.83300018310547,-1.5829999446868896 -26.577999114990234,-1.5829999446868896 C-27.62700080871582,-1.5829999446868896 -28.527000427246094,-1.0720000267028809 -29.083999633789062,-0.23100000619888306 C-29.083999633789062,-0.23100000619888306 -29.163000106811523,-0.23100000619888306 -29.163000106811523,-0.23100000619888306 C-29.158000946044922,-2.7109999656677246 -28.194000244140625,-4.1479997634887695 -26.618000030517578,-4.1479997634887695 C-25.54400062561035,-4.1479997634887695 -24.898000717163086,-3.4719998836517334 -24.66900062561035,-2.556999921798706 C-24.66900062561035,-2.556999921798706 -23.45599937438965,-2.556999921798706 -23.45599937438965,-2.556999921798706 C-23.704999923706055,-4.138000011444092 -24.908000946044922,-5.243000030517578 -26.618000030517578,-5.243000030517578 C-28.90999984741211,-5.243000030517578 -30.316999435424805,-3.2139999866485596 -30.316999435424805,0.38499999046325684 C-30.316999435424805,4.14900016784668 -28.44700050354004,5.197999954223633 -26.777000427246094,5.2170000076293945z M-26.777000427246094,4.124000072479248 C-28.05500030517578,4.124000072479248 -28.98900032043457,3.0360000133514404 -28.983999252319336,1.8179999589920044 C-28.979000091552734,0.6000000238418579 -28,-0.49000000953674316 -26.73699951171875,-0.49000000953674316 C-25.48900032043457,-0.49000000953674316 -24.56999969482422,0.5350000262260437 -24.56999969482422,1.7979999780654907 C-24.56999969482422,3.0899999141693115 -25.52899932861328,4.124000072479248 -26.777000427246094,4.124000072479248z M-17.464000701904297,5.078999996185303 C-17.464000701904297,5.078999996185303 -16.291000366210938,5.078999996185303 -16.291000366210938,5.078999996185303 C-16.291000366210938,5.078999996185303 -16.291000366210938,0.3050000071525574 -16.291000366210938,0.3050000071525574 C-16.291000366210938,-0.8119999766349792 -15.475000381469727,-1.6030000448226929 -14.560999870300293,-1.6030000448226929 C-13.670999526977539,-1.6030000448226929 -13.048999786376953,-1.0210000276565552 -13.048999786376953,-0.15199999511241913 C-13.048999786376953,-0.15199999511241913 -13.048999786376953,5.078999996185303 -13.048999786376953,5.078999996185303 C-13.048999786376953,5.078999996185303 -11.855999946594238,5.078999996185303 -11.855999946594238,5.078999996185303 C-11.855999946594238,5.078999996185303 -11.855999946594238,0.10700000077486038 -11.855999946594238,0.10700000077486038 C-11.855999946594238,-0.8769999742507935 -11.239999771118164,-1.6030000448226929 -10.166000366210938,-1.6030000448226929 C-9.329999923706055,-1.6030000448226929 -8.614999771118164,-1.159999966621399 -8.614999771118164,-0.032999999821186066 C-8.614999771118164,-0.032999999821186066 -8.614999771118164,5.078999996185303 -8.614999771118164,5.078999996185303 C-8.614999771118164,5.078999996185303 -7.440999984741211,5.078999996185303 -7.440999984741211,5.078999996185303 C-7.440999984741211,5.078999996185303 -7.440999984741211,-0.032999999821186066 -7.440999984741211,-0.032999999821186066 C-7.440999984741211,-1.8270000219345093 -8.406000137329102,-2.6579999923706055 -9.767999649047852,-2.6579999923706055 C-10.862000465393066,-2.6579999923706055 -11.661999702453613,-2.1559998989105225 -12.055000305175781,-1.3650000095367432 C-12.055000305175781,-1.3650000095367432 -12.133999824523926,-1.3650000095367432 -12.133999824523926,-1.3650000095367432 C-12.51200008392334,-2.180000066757202 -13.178000450134277,-2.6579999923706055 -14.182999610900879,-2.6579999923706055 C-15.175999641418457,-2.6579999923706055 -15.913000106811523,-2.180000066757202 -16.231000900268555,-1.3650000095367432 C-16.231000900268555,-1.3650000095367432 -16.329999923706055,-1.3650000095367432 -16.329999923706055,-1.3650000095367432 C-16.329999923706055,-1.3650000095367432 -16.329999923706055,-2.556999921798706 -16.329999923706055,-2.556999921798706 C-16.329999923706055,-2.556999921798706 -17.464000701904297,-2.556999921798706 -17.464000701904297,-2.556999921798706 C-17.464000701904297,-2.556999921798706 -17.464000701904297,5.078999996185303 -17.464000701904297,5.078999996185303z M-2.194000005722046,5.23799991607666 C-0.12600000202655792,5.23799991607666 1.2660000324249268,3.6670000553131104 1.2660000324249268,1.2999999523162842 C1.2660000324249268,-1.0859999656677246 -0.12600000202655792,-2.6579999923706055 -2.194000005722046,-2.6579999923706055 C-4.26200008392334,-2.6579999923706055 -5.6539998054504395,-1.0859999656677246 -5.6539998054504395,1.2999999523162842 C-5.6539998054504395,3.6670000553131104 -4.26200008392334,5.23799991607666 -2.194000005722046,5.23799991607666z M-2.194000005722046,4.184000015258789 C-3.765000104904175,4.184000015258789 -4.480999946594238,2.8320000171661377 -4.480999946594238,1.2999999523162842 C-4.480999946594238,-0.23100000619888306 -3.765000104904175,-1.6030000448226929 -2.194000005722046,-1.6030000448226929 C-0.6230000257492065,-1.6030000448226929 0.09300000220537186,-0.23100000619888306 0.09300000220537186,1.2999999523162842 C0.09300000220537186,2.8320000171661377 -0.6230000257492065,4.184000015258789 -2.194000005722046,4.184000015258789z M4.230999946594238,0.48500001430511475 C4.230999946594238,-0.847000002861023 5.056000232696533,-1.6030000448226929 6.179999828338623,-1.6030000448226929 C7.26800012588501,-1.6030000448226929 7.929999828338623,-0.8920000195503235 7.929999828338623,0.3050000071525574 C7.929999828338623,0.3050000071525574 7.929999828338623,5.078999996185303 7.929999828338623,5.078999996185303 C7.929999828338623,5.078999996185303 9.102999687194824,5.078999996185303 9.102999687194824,5.078999996185303 C9.102999687194824,5.078999996185303 9.102999687194824,0.22699999809265137 9.102999687194824,0.22699999809265137 C9.102999687194824,-1.722000002861023 8.064000129699707,-2.6579999923706055 6.51800012588501,-2.6579999923706055 C5.364999771118164,-2.6579999923706055 4.6479997634887695,-2.140000104904175 4.289999961853027,-1.3650000095367432 C4.289999961853027,-1.3650000095367432 4.190999984741211,-1.3650000095367432 4.190999984741211,-1.3650000095367432 C4.190999984741211,-1.3650000095367432 4.190999984741211,-2.556999921798706 4.190999984741211,-2.556999921798706 C4.190999984741211,-2.556999921798706 3.056999921798706,-2.556999921798706 3.056999921798706,-2.556999921798706 C3.056999921798706,-2.556999921798706 3.056999921798706,5.078999996185303 3.056999921798706,5.078999996185303 C3.056999921798706,5.078999996185303 4.230999946594238,5.078999996185303 4.230999946594238,5.078999996185303 C4.230999946594238,5.078999996185303 4.230999946594238,0.48500001430511475 4.230999946594238,0.48500001430511475z M14.567999839782715,-2.556999921798706 C14.567999839782715,-2.556999921798706 12.937000274658203,-2.556999921798706 12.937000274658203,-2.556999921798706 C12.937000274658203,-2.556999921798706 12.937000274658203,-4.38700008392334 12.937000274658203,-4.38700008392334 C12.937000274658203,-4.38700008392334 11.763999938964844,-4.38700008392334 11.763999938964844,-4.38700008392334 C11.763999938964844,-4.38700008392334 11.763999938964844,-2.556999921798706 11.763999938964844,-2.556999921798706 C11.763999938964844,-2.556999921798706 10.611000061035156,-2.556999921798706 10.611000061035156,-2.556999921798706 C10.611000061035156,-2.556999921798706 10.611000061035156,-1.562999963760376 10.611000061035156,-1.562999963760376 C10.611000061035156,-1.562999963760376 11.763999938964844,-1.562999963760376 11.763999938964844,-1.562999963760376 C11.763999938964844,-1.562999963760376 11.763999938964844,3.2100000381469727 11.763999938964844,3.2100000381469727 C11.763999938964844,4.541999816894531 12.838000297546387,5.177000045776367 13.831999778747559,5.177000045776367 C14.270000457763672,5.177000045776367 14.54800033569336,5.0980000495910645 14.706999778747559,5.039000034332275 C14.706999778747559,5.039000034332275 14.468999862670898,3.984999895095825 14.468999862670898,3.984999895095825 C14.369000434875488,4.005000114440918 14.210000038146973,4.045000076293945 13.951000213623047,4.045000076293945 C13.434000015258789,4.045000076293945 12.937000274658203,3.884999990463257 12.937000274658203,2.890000104904175 C12.937000274658203,2.890000104904175 12.937000274658203,-1.562999963760376 12.937000274658203,-1.562999963760376 C12.937000274658203,-1.562999963760376 14.567999839782715,-1.562999963760376 14.567999839782715,-1.562999963760376 C14.567999839782715,-1.562999963760376 14.567999839782715,-2.556999921798706 14.567999839782715,-2.556999921798706z M17.670000076293945,0.48500001430511475 C17.670000076293945,-0.847000002861023 18.520000457763672,-1.6030000448226929 19.679000854492188,-1.6030000448226929 C20.781999588012695,-1.6030000448226929 21.448999404907227,-0.9079999923706055 21.448999404907227,0.3050000071525574 C21.448999404907227,0.3050000071525574 21.448999404907227,5.078999996185303 21.448999404907227,5.078999996185303 C21.448999404907227,5.078999996185303 22.621999740600586,5.078999996185303 22.621999740600586,5.078999996185303 C22.621999740600586,5.078999996185303 22.621999740600586,0.22699999809265137 22.621999740600586,0.22699999809265137 C22.621999740600586,-1.7380000352859497 21.577999114990234,-2.6579999923706055 20.017000198364258,-2.6579999923706055 C18.81399917602539,-2.6579999923706055 18.128000259399414,-2.1559998989105225 17.770000457763672,-1.3650000095367432 C17.770000457763672,-1.3650000095367432 17.670000076293945,-1.3650000095367432 17.670000076293945,-1.3650000095367432 C17.670000076293945,-1.3650000095367432 17.670000076293945,-5.103000164031982 17.670000076293945,-5.103000164031982 C17.670000076293945,-5.103000164031982 16.496999740600586,-5.103000164031982 16.496999740600586,-5.103000164031982 C16.496999740600586,-5.103000164031982 16.496999740600586,5.078999996185303 16.496999740600586,5.078999996185303 C16.496999740600586,5.078999996185303 17.670000076293945,5.078999996185303 17.670000076293945,5.078999996185303 C17.670000076293945,5.078999996185303 17.670000076293945,0.48500001430511475 17.670000076293945,0.48500001430511475z M30.17799949645996,-0.847000002861023 C29.809999465942383,-1.930999994277954 28.983999252319336,-2.6579999923706055 27.472999572753906,-2.6579999923706055 C25.86199951171875,-2.6579999923706055 24.66900062561035,-1.7430000305175781 24.66900062561035,-0.44999998807907104 C24.66900062561035,0.6050000190734863 25.295000076293945,1.3109999895095825 26.69700050354004,1.6380000114440918 C26.69700050354004,1.6380000114440918 27.969999313354492,1.937000036239624 27.969999313354492,1.937000036239624 C28.740999221801758,2.115999937057495 29.104000091552734,2.4839999675750732 29.104000091552734,3.009999990463257 C29.104000091552734,3.6670000553131104 28.408000946044922,4.203999996185303 27.31399917602539,4.203999996185303 C26.354000091552734,4.203999996185303 25.753000259399414,3.7909998893737793 25.54400062561035,2.9700000286102295 C25.54400062561035,2.9700000286102295 24.43000030517578,3.249000072479248 24.43000030517578,3.249000072479248 C24.70400047302246,4.546999931335449 25.773000717163086,5.23799991607666 27.333999633789062,5.23799991607666 C29.108999252319336,5.23799991607666 30.316999435424805,4.269000053405762 30.316999435424805,2.9509999752044678 C30.316999435424805,1.8860000371932983 29.650999069213867,1.215999960899353 28.288000106811523,0.8820000290870667 C28.288000106811523,0.8820000290870667 27.1560001373291,0.6050000190734863 27.1560001373291,0.6050000190734863 C26.25,0.38100001215934753 25.841999053955078,0.07800000160932541 25.841999053955078,-0.5090000033378601 C25.841999053955078,-1.1649999618530273 26.538000106811523,-1.6430000066757202 27.472999572753906,-1.6430000066757202 C28.496999740600586,-1.6430000066757202 28.920000076293945,-1.0759999752044678 29.124000549316406,-0.5490000247955322 C29.124000549316406,-0.5490000247955322 30.17799949645996,-0.847000002861023 30.17799949645996,-0.847000002861023z"></path></g></g><g transform="matrix(1,0,0,1,302.75,-0.25)" opacity="1" style="display: block;"><g opacity="1" transform="matrix(1,0,0,1,12.24899959564209,11.821999549865723)"><path fill="rgb(255,68,0)" fill-opacity="1" d=" M-11.99899959564209,11.571999549865723 C-11.99899959564209,11.571999549865723 11.99899959564209,11.571999549865723 11.99899959564209,11.571999549865723 C11.99899959564209,11.571999549865723 11.99899959564209,-11.571999549865723 11.99899959564209,-11.571999549865723 C11.99899959564209,-11.571999549865723 -11.99899959564209,-11.571999549865723 -11.99899959564209,-11.571999549865723 C-11.99899959564209,-11.571999549865723 -11.99899959564209,11.571999549865723 -11.99899959564209,11.571999549865723z"></path></g><g opacity="1" transform="matrix(1,0,0,1,14.25,11.33899974822998)"><path fill="rgb(18,18,18)" fill-opacity="1" d=" M-8,0.5849999785423279 C-8,0.5849999785423279 -7.251999855041504,-0.5849999785423279 -4.922999858856201,-0.5849999785423279 C-2.5940001010894775,-0.5849999785423279 -1.8459999561309814,1.1710000038146973 -1.8459999561309814,1.1710000038146973 C-1.8459999561309814,1.1710000038146973 0.6150000095367432,-1.1699999570846558 3.0769999027252197,1.1710000038146973 C3.0769999027252197,1.1710000038146973 0.5820000171661377,-3.3299999237060547 0,-5.26800012588501 C0,-5.26800012588501 -1.2309999465942383,-4.684000015258789 -1.2309999465942383,-4.684000015258789 C-1.2309999465942383,-4.684000015258789 -3.691999912261963,-4.684000015258789 -3.691999912261963,-4.684000015258789 C-3.691999912261963,-4.684000015258789 -5.113999843597412,-6.811999797821045 -3.0769999027252197,-8.196999549865723 C-3.0769999027252197,-8.196999549865723 0.10000000149011612,-7.823999881744385 1.8459999561309814,-6.439000129699707 C3.5929999351501465,-5.054999828338623 7.126999855041504,-2.8889999389648438 8,2.927999973297119 C8,2.927999973297119 5.98799991607666,5.302000045776367 3.0769999027252197,5.855000019073486 C0.16599999368190765,6.408999919891357 -2.4619998931884766,5.855000019073486 -2.4619998931884766,5.855000019073486 C-2.4619998931884766,5.855000019073486 -4.50600004196167,8.196999549865723 -8,8.196999549865723 C-8,8.196999549865723 -8,0.5849999785423279 -8,0.5849999785423279z"></path></g><g opacity="1" transform="matrix(1,0,0,1,12.25,23.375)"><path fill="rgb(255,68,0)" fill-opacity="1" d=" M6,-2.875 C6,-2.875 -6,-2.875 -6,-2.875 C-6,-2.875 0,2.875 0,2.875 C0,2.875 6,-2.875 6,-2.875z"></path></g></g><g transform="matrix(1,0,0,1,-3,20.000003814697266)" opacity="1" style="display: block;"><g opacity="1" transform="matrix(1,0,0,1,160.25,54.73099899291992)"><path stroke-linecap="butt" stroke-linejoin="miter" fill-opacity="0" stroke-miterlimit="4" stroke="rgb(255,255,255)" stroke-opacity="1" stroke-width="2" d=" M-158.25,-52.73099899291992 C-120.80699920654297,-52.73099899291992 -91.85099792480469,-29.131000518798828 -36.43600082397461,-29.131000518798828 C18.979999542236328,-29.131000518798828 34.95500183105469,29.115999221801758 77.39099884033203,32.12900161743164 C112.86699676513672,34.64699935913086 137.875,35.060001373291016 158.25,52.73099899291992"></path></g></g><g transform="matrix(1,0,0,1,-0.2669999599456787,17.75)" opacity="1" style="display: none;"><g opacity="1" transform="matrix(1,0,0,1,4.25,4.25)"><path fill="rgb(255,255,255)" fill-opacity="1" d=" M0,-4 C2.2090001106262207,-4 4,-2.2090001106262207 4,0 C4,2.2090001106262207 2.2090001106262207,4 0,4 C-2.2090001106262207,4 -4,2.2090001106262207 -4,0 C-4,-2.2090001106262207 -2.2090001106262207,-4 0,-4z"></path></g></g><g transform="matrix(1,0,0,1,310.125,122.96199798583984)" opacity="1" style="display: block;"><g opacity="1" transform="matrix(1,0,0,1,4.25,4.25)"><path fill="rgb(255,255,255)" fill-opacity="1" d=" M0,-4 C2.2090001106262207,-4 4,-2.2090001106262207 4,0 C4,2.2090001106262207 2.2090001106262207,4 0,4 C-2.2090001106262207,4 -4,2.2090001106262207 -4,0 C-4,-2.2090001106262207 -2.2090001106262207,-4 0,-4z"></path></g></g><g transform="matrix(1,0,0,1,-2.5,28)" opacity="1" style="display: block;"><g opacity="1" transform="matrix(1,0,0,1,159.75,54)"><path stroke-linecap="butt" stroke-linejoin="miter" fill-opacity="0" stroke-miterlimit="4" stroke="rgb(255,68,0)" stroke-opacity="1" stroke-width="2" d=" M-157.75,52 C-18.75,52 -40.75,-2 37.75,-2 C116.25,-2 106.75,-52 157.75,-52"></path></g></g><g transform="matrix(1,0,0,1,0.22700119018554688,109.02399444580078)" opacity="1" style="display: block;"><g opacity="1" transform="matrix(1,0,0,1,38.319000244140625,4.677000045776367)"><path fill="rgb(255,68,0)" fill-opacity="1" d=" M-38.069000244140625,-3.1040000915527344 C-38.069000244140625,-3.1040000915527344 -35.37099838256836,-3.1040000915527344 -35.37099838256836,-3.1040000915527344 C-35.37099838256836,-3.1040000915527344 -35.37099838256836,4.298999786376953 -35.37099838256836,4.298999786376953 C-35.37099838256836,4.298999786376953 -33.803001403808594,4.298999786376953 -33.803001403808594,4.298999786376953 C-33.803001403808594,4.298999786376953 -33.803001403808594,-3.1040000915527344 -33.803001403808594,-3.1040000915527344 C-33.803001403808594,-3.1040000915527344 -31.104999542236328,-3.1040000915527344 -31.104999542236328,-3.1040000915527344 C-31.104999542236328,-3.1040000915527344 -31.104999542236328,-4.427999973297119 -31.104999542236328,-4.427999973297119 C-31.104999542236328,-4.427999973297119 -38.069000244140625,-4.427999973297119 -38.069000244140625,-4.427999973297119 C-38.069000244140625,-4.427999973297119 -38.069000244140625,-3.1040000915527344 -38.069000244140625,-3.1040000915527344z M-27.858999252319336,4.427999973297119 C-26.33300018310547,4.427999973297119 -25.28499984741211,3.680999994277954 -25.011999130249023,2.5439999103546143 C-25.011999130249023,2.5439999103546143 -26.45199966430664,2.381999969482422 -26.45199966430664,2.381999969482422 C-26.660999298095703,2.934999942779541 -27.17300033569336,3.2249999046325684 -27.836999893188477,3.2249999046325684 C-28.834999084472656,3.2249999046325684 -29.4950008392334,2.569000005722046 -29.506999969482422,1.4490000009536743 C-29.506999969482422,1.4490000009536743 -24.947999954223633,1.4490000009536743 -24.947999954223633,1.4490000009536743 C-24.947999954223633,1.4490000009536743 -24.947999954223633,0.9750000238418579 -24.947999954223633,0.9750000238418579 C-24.947999954223633,-1.3209999799728394 -26.32900047302246,-2.3310000896453857 -27.940000534057617,-2.3310000896453857 C-29.815000534057617,-2.3310000896453857 -31.038000106811523,-0.9549999833106995 -31.038000106811523,1.0640000104904175 C-31.038000106811523,3.11899995803833 -29.832000732421875,4.427999973297119 -27.858999252319336,4.427999973297119z M-29.503999710083008,0.40799999237060547 C-29.457000732421875,-0.4269999861717224 -28.839000701904297,-1.1299999952316284 -27.917999267578125,-1.1299999952316284 C-27.031999588012695,-1.1299999952316284 -26.434999465942383,-0.4830000102519989 -26.427000045776367,0.40799999237060547 C-26.427000045776367,0.40799999237060547 -29.503999710083008,0.40799999237060547 -29.503999710083008,0.40799999237060547z M-18.445999145507812,-0.5170000195503235 C-18.659000396728516,-1.6239999532699585 -19.545000076293945,-2.3310000896453857 -21.07900047302246,-2.3310000896453857 C-22.6560001373291,-2.3310000896453857 -23.729999542236328,-1.5570000410079956 -23.72599983215332,-0.34599998593330383 C-23.729999542236328,0.6079999804496765 -23.142000198364258,1.2389999628067017 -21.884000778198242,1.4989999532699585 C-21.884000778198242,1.4989999532699585 -20.76799964904785,1.7339999675750732 -20.76799964904785,1.7339999675750732 C-20.16699981689453,1.8669999837875366 -19.88599967956543,2.1089999675750732 -19.88599967956543,2.4790000915527344 C-19.88599967956543,2.927999973297119 -20.371999740600586,3.26200008392334 -21.104999542236328,3.26200008392334 C-21.812000274658203,3.26200008392334 -22.273000717163086,2.9579999446868896 -22.40399932861328,2.369999885559082 C-22.40399932861328,2.369999885559082 -23.909000396728516,2.51200008392334 -23.909000396728516,2.51200008392334 C-23.716999053955078,3.7149999141693115 -22.707000732421875,4.427999973297119 -21.10099983215332,4.427999973297119 C-19.464000701904297,4.427999973297119 -18.30900001525879,3.5799999237060547 -18.30500030517578,2.3399999141693115 C-18.30900001525879,1.406999945640564 -18.90999984741211,0.8360000252723694 -20.145999908447266,0.5659999847412109 C-20.145999908447266,0.5659999847412109 -21.261999130249023,0.3269999921321869 -21.261999130249023,0.3269999921321869 C-21.927000045776367,0.17800000309944153 -22.191999435424805,-0.052000001072883606 -22.187000274658203,-0.4320000112056732 C-22.191999435424805,-0.8740000128746033 -21.701000213623047,-1.1820000410079956 -21.058000564575195,-1.1820000410079956 C-20.34600067138672,-1.1820000410079956 -19.97100067138672,-0.7929999828338623 -19.851999282836914,-0.3630000054836273 C-19.851999282836914,-0.3630000054836273 -18.445999145507812,-0.5170000195503235 -18.445999145507812,-0.5170000195503235z M-13.739999771118164,-2.244999885559082 C-13.739999771118164,-2.244999885559082 -15.031999588012695,-2.244999885559082 -15.031999588012695,-2.244999885559082 C-15.031999588012695,-2.244999885559082 -15.031999588012695,-3.815999984741211 -15.031999588012695,-3.815999984741211 C-15.031999588012695,-3.815999984741211 -16.573999404907227,-3.815999984741211 -16.573999404907227,-3.815999984741211 C-16.573999404907227,-3.815999984741211 -16.573999404907227,-2.244999885559082 -16.573999404907227,-2.244999885559082 C-16.573999404907227,-2.244999885559082 -17.503999710083008,-2.244999885559082 -17.503999710083008,-2.244999885559082 C-17.503999710083008,-2.244999885559082 -17.503999710083008,-1.0529999732971191 -17.503999710083008,-1.0529999732971191 C-17.503999710083008,-1.0529999732971191 -16.573999404907227,-1.0529999732971191 -16.573999404907227,-1.0529999732971191 C-16.573999404907227,-1.0529999732971191 -16.573999404907227,2.5869998931884766 -16.573999404907227,2.5869998931884766 C-16.58300018310547,3.816999912261963 -15.687999725341797,4.422999858856201 -14.529000282287598,4.38700008392334 C-14.09000015258789,4.375999927520752 -13.786999702453613,4.289999961853027 -13.621000289916992,4.234000205993652 C-13.621000289916992,4.234000205993652 -13.881999969482422,3.0290000438690186 -13.881999969482422,3.0290000438690186 C-13.965999603271484,3.049999952316284 -14.140999794006348,3.0899999141693115 -14.333000183105469,3.0899999141693115 C-14.720999717712402,3.0899999141693115 -15.031999588012695,2.953000068664551 -15.031999588012695,2.3310000896453857 C-15.031999588012695,2.3310000896453857 -15.031999588012695,-1.0529999732971191 -15.031999588012695,-1.0529999732971191 C-15.031999588012695,-1.0529999732971191 -13.739999771118164,-1.0529999732971191 -13.739999771118164,-1.0529999732971191 C-13.739999771118164,-1.0529999732971191 -13.739999771118164,-2.244999885559082 -13.739999771118164,-2.244999885559082z M-9.642000198364258,4.427999973297119 C-7.723999977111816,4.427999973297119 -6.50600004196167,3.0769999027252197 -6.50600004196167,1.0529999732971191 C-6.50600004196167,-0.9769999980926514 -7.723999977111816,-2.3310000896453857 -9.642000198364258,-2.3310000896453857 C-11.559000015258789,-2.3310000896453857 -12.777999877929688,-0.9769999980926514 -12.777999877929688,1.0529999732971191 C-12.777999877929688,3.0769999027252197 -11.559000015258789,4.427999973297119 -9.642000198364258,4.427999973297119z M-9.633000373840332,3.190999984741211 C-10.694000244140625,3.190999984741211 -11.21399974822998,2.246000051498413 -11.21399974822998,1.0490000247955322 C-11.21399974822998,-0.15000000596046448 -10.694000244140625,-1.1089999675750732 -9.633000373840332,-1.1089999675750732 C-8.58899974822998,-1.1089999675750732 -8.069000244140625,-0.15000000596046448 -8.069000244140625,1.0490000247955322 C-8.069000244140625,2.246000051498413 -8.58899974822998,3.190999984741211 -9.633000373840332,3.190999984741211z M0.0010000000474974513,-0.5170000195503235 C-0.21199999749660492,-1.6239999532699585 -1.0980000495910645,-2.3310000896453857 -2.631999969482422,-2.3310000896453857 C-4.209000110626221,-2.3310000896453857 -5.2829999923706055,-1.5570000410079956 -5.2779998779296875,-0.34599998593330383 C-5.2829999923706055,0.6079999804496765 -4.695000171661377,1.2389999628067017 -3.437999963760376,1.4989999532699585 C-3.437999963760376,1.4989999532699585 -2.321000099182129,1.7339999675750732 -2.321000099182129,1.7339999675750732 C-1.7200000286102295,1.8669999837875366 -1.4390000104904175,2.1089999675750732 -1.4390000104904175,2.4790000915527344 C-1.4390000104904175,2.927999973297119 -1.9249999523162842,3.26200008392334 -2.6579999923706055,3.26200008392334 C-3.365000009536743,3.26200008392334 -3.825000047683716,2.9579999446868896 -3.9579999446868896,2.369999885559082 C-3.9579999446868896,2.369999885559082 -5.461999893188477,2.51200008392334 -5.461999893188477,2.51200008392334 C-5.269999980926514,3.7149999141693115 -4.260000228881836,4.427999973297119 -2.6530001163482666,4.427999973297119 C-1.0169999599456787,4.427999973297119 0.1379999965429306,3.5799999237060547 0.1420000046491623,2.3399999141693115 C0.1379999965429306,1.406999945640564 -0.46299999952316284,0.8360000252723694 -1.6990000009536743,0.5659999847412109 C-1.6990000009536743,0.5659999847412109 -2.815999984741211,0.3269999921321869 -2.815999984741211,0.3269999921321869 C-3.4800000190734863,0.17800000309944153 -3.74399995803833,-0.052000001072883606 -3.740000009536743,-0.4320000112056732 C-3.74399995803833,-0.8740000128746033 -3.255000114440918,-1.1820000410079956 -2.6110000610351562,-1.1820000410079956 C-1.8990000486373901,-1.1820000410079956 -1.5240000486373901,-0.7929999828338623 -1.4049999713897705,-0.3630000054836273 C-1.4049999713897705,-0.3630000054836273 0.0010000000474974513,-0.5170000195503235 0.0010000000474974513,-0.5170000195503235z M4.705999851226807,-2.244999885559082 C4.705999851226807,-2.244999885559082 3.4149999618530273,-2.244999885559082 3.4149999618530273,-2.244999885559082 C3.4149999618530273,-2.244999885559082 3.4149999618530273,-3.815999984741211 3.4149999618530273,-3.815999984741211 C3.4149999618530273,-3.815999984741211 1.871999979019165,-3.815999984741211 1.871999979019165,-3.815999984741211 C1.871999979019165,-3.815999984741211 1.871999979019165,-2.244999885559082 1.871999979019165,-2.244999885559082 C1.871999979019165,-2.244999885559082 0.9440000057220459,-2.244999885559082 0.9440000057220459,-2.244999885559082 C0.9440000057220459,-2.244999885559082 0.9440000057220459,-1.0529999732971191 0.9440000057220459,-1.0529999732971191 C0.9440000057220459,-1.0529999732971191 1.871999979019165,-1.0529999732971191 1.871999979019165,-1.0529999732971191 C1.871999979019165,-1.0529999732971191 1.871999979019165,2.5869998931884766 1.871999979019165,2.5869998931884766 C1.8639999628067017,3.816999912261963 2.759000062942505,4.422999858856201 3.9179999828338623,4.38700008392334 C4.35699987411499,4.375999927520752 4.659999847412109,4.289999961853027 4.826000213623047,4.234000205993652 C4.826000213623047,4.234000205993652 4.565999984741211,3.0290000438690186 4.565999984741211,3.0290000438690186 C4.480000019073486,3.049999952316284 4.306000232696533,3.0899999141693115 4.113999843597412,3.0899999141693115 C3.7260000705718994,3.0899999141693115 3.4149999618530273,2.953000068664551 3.4149999618530273,2.3310000896453857 C3.4149999618530273,2.3310000896453857 3.4149999618530273,-1.0529999732971191 3.4149999618530273,-1.0529999732971191 C3.4149999618530273,-1.0529999732971191 4.705999851226807,-1.0529999732971191 4.705999851226807,-1.0529999732971191 C4.705999851226807,-1.0529999732971191 4.705999851226807,-2.244999885559082 4.705999851226807,-2.244999885559082z M8.847999572753906,4.427999973297119 C10.373000144958496,4.427999973297119 11.42199993133545,3.680999994277954 11.694999694824219,2.5439999103546143 C11.694999694824219,2.5439999103546143 10.253999710083008,2.381999969482422 10.253999710083008,2.381999969482422 C10.045000076293945,2.934999942779541 9.534000396728516,3.2249999046325684 8.869000434875488,3.2249999046325684 C7.872000217437744,3.2249999046325684 7.211999893188477,2.569000005722046 7.198999881744385,1.4490000009536743 C7.198999881744385,1.4490000009536743 11.758999824523926,1.4490000009536743 11.758999824523926,1.4490000009536743 C11.758999824523926,1.4490000009536743 11.758999824523926,0.9750000238418579 11.758999824523926,0.9750000238418579 C11.758999824523926,-1.3209999799728394 10.378000259399414,-2.3310000896453857 8.767000198364258,-2.3310000896453857 C6.892000198364258,-2.3310000896453857 5.669000148773193,-0.9549999833106995 5.669000148773193,1.0640000104904175 C5.669000148773193,3.11899995803833 6.875,4.427999973297119 8.847999572753906,4.427999973297119z M7.203000068664551,0.40799999237060547 C7.25,-0.4269999861717224 7.868000030517578,-1.1299999952316284 8.788000106811523,-1.1299999952316284 C9.675000190734863,-1.1299999952316284 10.270999908447266,-0.4830000102519989 10.279999732971191,0.40799999237060547 C10.279999732971191,0.40799999237060547 7.203000068664551,0.40799999237060547 7.203000068664551,0.40799999237060547z M13.088000297546387,4.298999786376953 C13.088000297546387,4.298999786376953 14.630000114440918,4.298999786376953 14.630000114440918,4.298999786376953 C14.630000114440918,4.298999786376953 14.630000114440918,0.4519999921321869 14.630000114440918,0.4519999921321869 C14.630000114440918,-0.3790000081062317 15.256999969482422,-0.9670000076293945 16.104000091552734,-0.9670000076293945 C16.364999771118164,-0.9670000076293945 16.687999725341797,-0.9210000038146973 16.820999145507812,-0.8790000081062317 C16.820999145507812,-0.8790000081062317 16.820999145507812,-2.2980000972747803 16.820999145507812,-2.2980000972747803 C16.68000030517578,-2.322999954223633 16.437000274658203,-2.3399999141693115 16.266000747680664,-2.3399999141693115 C15.515999794006348,-2.3399999141693115 14.890000343322754,-1.9140000343322754 14.651000022888184,-1.156000018119812 C14.651000022888184,-1.156000018119812 14.583000183105469,-1.156000018119812 14.583000183105469,-1.156000018119812 C14.583000183105469,-1.156000018119812 14.583000183105469,-2.244999885559082 14.583000183105469,-2.244999885559082 C14.583000183105469,-2.244999885559082 13.088000297546387,-2.244999885559082 13.088000297546387,-2.244999885559082 C13.088000297546387,-2.244999885559082 13.088000297546387,4.298999786376953 13.088000297546387,4.298999786376953z M20.454999923706055,4.427999973297119 C22.371999740600586,4.427999973297119 23.590999603271484,3.0769999027252197 23.590999603271484,1.0529999732971191 C23.590999603271484,-0.9769999980926514 22.371999740600586,-2.3310000896453857 20.454999923706055,-2.3310000896453857 C18.53700065612793,-2.3310000896453857 17.319000244140625,-0.9769999980926514 17.319000244140625,1.0529999732971191 C17.319000244140625,3.0769999027252197 18.53700065612793,4.427999973297119 20.454999923706055,4.427999973297119z M20.46299934387207,3.190999984741211 C19.402000427246094,3.190999984741211 18.882999420166016,2.246000051498413 18.882999420166016,1.0490000247955322 C18.882999420166016,-0.15000000596046448 19.402000427246094,-1.1089999675750732 20.46299934387207,-1.1089999675750732 C21.507999420166016,-1.1089999675750732 22.027000427246094,-0.15000000596046448 22.027000427246094,1.0490000247955322 C22.027000427246094,2.246000051498413 21.507999420166016,3.190999984741211 20.46299934387207,3.190999984741211z M26.466999053955078,0.4650000035762787 C26.466999053955078,-0.4819999933242798 27.038000106811523,-1.0290000438690186 27.851999282836914,-1.0290000438690186 C28.64900016784668,-1.0290000438690186 29.125999450683594,-0.5040000081062317 29.125999450683594,0.3700000047683716 C29.125999450683594,0.3700000047683716 29.125999450683594,4.298999786376953 29.125999450683594,4.298999786376953 C29.125999450683594,4.298999786376953 30.66900062561035,4.298999786376953 30.66900062561035,4.298999786376953 C30.66900062561035,4.298999786376953 30.66900062561035,0.13199999928474426 30.66900062561035,0.13199999928474426 C30.67300033569336,-1.437000036239624 29.777999877929688,-2.3310000896453857 28.42799949645996,-2.3310000896453857 C27.44700050354004,-2.3310000896453857 26.77400016784668,-1.8619999885559082 26.47599983215332,-1.1330000162124634 C26.47599983215332,-1.1330000162124634 26.39900016784668,-1.1330000162124634 26.39900016784668,-1.1330000162124634 C26.39900016784668,-1.1330000162124634 26.39900016784668,-2.244999885559082 26.39900016784668,-2.244999885559082 C26.39900016784668,-2.244999885559082 24.924999237060547,-2.244999885559082 24.924999237060547,-2.244999885559082 C24.924999237060547,-2.244999885559082 24.924999237060547,4.298999786376953 24.924999237060547,4.298999786376953 C24.924999237060547,4.298999786376953 26.466999053955078,4.298999786376953 26.466999053955078,4.298999786376953 C26.466999053955078,4.298999786376953 26.466999053955078,0.4650000035762787 26.466999053955078,0.4650000035762787z M35.159000396728516,4.427999973297119 C36.683998107910156,4.427999973297119 37.733001708984375,3.680999994277954 38.005001068115234,2.5439999103546143 C38.005001068115234,2.5439999103546143 36.564998626708984,2.381999969482422 36.564998626708984,2.381999969482422 C36.35599899291992,2.934999942779541 35.845001220703125,3.2249999046325684 35.18000030517578,3.2249999046325684 C34.18299865722656,3.2249999046325684 33.52199935913086,2.569000005722046 33.5099983215332,1.4490000009536743 C33.5099983215332,1.4490000009536743 38.069000244140625,1.4490000009536743 38.069000244140625,1.4490000009536743 C38.069000244140625,1.4490000009536743 38.069000244140625,0.9750000238418579 38.069000244140625,0.9750000238418579 C38.069000244140625,-1.3209999799728394 36.68899917602539,-2.3310000896453857 35.077999114990234,-2.3310000896453857 C33.202999114990234,-2.3310000896453857 31.979999542236328,-0.9549999833106995 31.979999542236328,1.0640000104904175 C31.979999542236328,3.11899995803833 33.18600082397461,4.427999973297119 35.159000396728516,4.427999973297119z M33.513999938964844,0.40799999237060547 C33.56100082397461,-0.4269999861717224 34.17900085449219,-1.1299999952316284 35.0989990234375,-1.1299999952316284 C35.98500061035156,-1.1299999952316284 36.582000732421875,-0.4830000102519989 36.590999603271484,0.40799999237060547 C36.590999603271484,0.40799999237060547 33.513999938964844,0.40799999237060547 33.513999938964844,0.40799999237060547z"></path></g></g><g transform="matrix(1,0,0,1,310.75,26)" opacity="1" style="display: block;"><g opacity="1" transform="matrix(1,0,0,1,4.25,4.25)"><path fill="rgb(255,68,0)" fill-opacity="1" d=" M0,-4 C2.2090001106262207,-4 4,-2.2090001106262207 4,0 C4,2.2090001106262207 2.2090001106262207,4 0,4 C-2.2090001106262207,4 -4,2.2090001106262207 -4,0 C-4,-2.2090001106262207 -2.2090001106262207,-4 0,-4z"></path></g></g><g transform="matrix(1,0,0,1,-0.2990000247955322,129.98599243164062)" opacity="1" style="display: none;"><g opacity="1" transform="matrix(1,0,0,1,4.25,4.25)"><path fill="rgb(255,68,0)" fill-opacity="1" d=" M0,-4 C2.2090001106262207,-4 4,-2.2090001106262207 4,0 C4,2.2090001106262207 2.2090001106262207,4 0,4 C-2.2090001106262207,4 -4,2.2090001106262207 -4,0 C-4,-2.2090001106262207 -2.2090001106262207,-4 0,-4z"></path></g></g></g></svg>