<svg width="96" height="72" viewBox="0 0 96 72" fill="none" xmlns="http://www.w3.org/2000/svg">
<g clip-path="url(#clip0_418_10019)">
<path d="M44.6737 19.1614C44.9434 19.3345 45.2452 19.4179 45.5438 19.4179C46.0704 19.4179 46.5873 19.1582 46.8955 18.6835C50.8575 12.5485 53.7022 8.43067 55.1181 6.77264C57.4716 4.01781 63.954 5.32306 66.2496 6.06068C67.094 6.33328 67.9995 5.86826 68.2692 5.02802C68.5421 4.18457 68.0765 3.28019 67.2353 3.0108C66.1822 2.67086 56.8262 -0.164151 52.6748 4.69449C51.1465 6.48401 48.2954 10.6082 44.1985 16.9485C43.7137 17.6893 43.9288 18.6803 44.6737 19.1614Z" fill="#FF6025"/>
<path d="M12.1108 65.1661C11.2952 65.5157 10.9196 66.4585 11.2696 67.2731C11.5296 67.8793 12.1236 68.2449 12.7465 68.2449C12.9584 68.2449 13.1735 68.2032 13.379 68.1134L18.789 65.7915L17.4791 62.8635L12.1108 65.1661Z" fill="#FF6025"/>
<path d="M95.6629 35.4017L94.491 32.7656C94.2245 32.1626 93.8039 31.6463 93.2805 31.239C93.5534 30.8606 93.7846 30.4469 93.958 29.9979C94.4813 28.6381 94.4428 27.1597 93.852 25.8288L92.9338 23.7667C92.3848 22.5319 91.4151 21.5698 90.1918 21.0182C90.8147 19.6488 90.8789 18.0325 90.2207 16.5509L89.3025 14.4887C88.9461 13.687 88.4131 13.0007 87.7485 12.4651C89.3763 10.9225 89.9478 8.46274 88.9878 6.30121L88.0696 4.23909C86.8495 1.49388 83.6195 0.249555 80.8744 1.46822L62.933 9.33505C62.1207 9.69103 61.7514 10.6371 62.1078 11.4485C62.4642 12.2599 63.4114 12.6287 64.2237 12.2727L82.1715 4.40265C83.3049 3.90235 84.6341 4.41227 85.135 5.54114L86.0532 7.60326C86.5573 8.73534 86.0436 10.063 84.9263 10.5569L82.8425 11.4581C82.5921 11.5287 82.3449 11.612 82.1041 11.7179L76.7807 14.0814L76.7679 14.0879L75.8496 14.4952C75.0405 14.8543 74.6745 15.8036 75.0341 16.6118C75.3937 17.42 76.3441 17.7856 77.1532 17.4264L78.0458 17.0319L83.8989 14.5016C84.3066 14.4214 84.7304 14.4567 85.1286 14.6106C85.6872 14.8255 86.1303 15.2456 86.3743 15.794L87.2926 17.8561C87.7967 18.9882 87.2829 20.3159 86.1528 20.8162L79.8951 23.5935L79.4842 23.7763C78.6751 24.1355 78.309 25.0847 78.6686 25.8929C79.0282 26.7011 79.9786 27.0667 80.7877 26.7075L87.0453 23.9302C87.5944 23.6865 88.2044 23.6704 88.7631 23.8853C89.3217 24.1002 89.7648 24.5203 90.0088 25.0687L90.9271 27.1308C91.1711 27.6792 91.1872 28.2886 90.972 28.8466C90.7569 29.4046 90.3363 29.8472 89.7873 30.0909L83.5296 32.8682L81.4876 33.7726C80.6785 34.1318 80.3125 35.081 80.6721 35.8892C81.0317 36.6974 81.9821 37.063 82.7912 36.7038L89.5818 33.6924C90.0281 33.4936 90.5161 33.4487 90.9207 33.5673C91.1005 33.6186 91.4248 33.7533 91.566 34.0676L92.7379 36.7038C92.876 37.0181 92.7604 37.3484 92.6769 37.5184C92.4907 37.8968 92.1311 38.2303 91.6848 38.426L84.8942 41.4373C84.8524 41.4566 84.8139 41.4758 84.7754 41.4951C78.8356 44.7438 61.7193 52.4599 53.9783 49.1887C52.3666 48.5088 50.6232 48.496 49.0692 49.1567C48.2537 49.503 47.8748 50.4459 48.2216 51.2605C48.5683 52.075 49.5123 52.4535 50.3278 52.1071C51.0727 51.7896 51.9267 51.8024 52.7294 52.1424C54.4503 52.8704 56.457 53.1783 58.621 53.1783C69.7461 53.1783 84.9552 45.0517 86.2619 44.3429L92.9948 41.3572C94.1378 40.8505 95.0528 39.9846 95.573 38.9198C96.1092 37.7781 96.1477 36.4953 95.6629 35.4017Z" fill="#FF6025"/>
<path d="M46.6066 52.3412L46.613 52.338L45.2902 49.4164L45.2773 49.4228L43.6206 45.7861C43.4183 45.3435 43.1518 44.949 42.8308 44.6027C43.1229 44.5065 43.4087 44.3878 43.6816 44.2371C45.7686 43.0793 46.7093 40.5618 45.9098 38.3297L43.6977 26.0052C43.6977 26.0052 41.8708 17.529 36.4479 17.5354C32.7813 17.5386 26.5975 19.3057 22.4878 22.0124C18.9945 24.3151 14.172 29.3244 12.8428 30.7323L4.53351 32.6148C3.66983 32.8105 3.12722 33.6699 3.32307 34.5326C3.49324 35.2767 4.15464 35.7834 4.88668 35.7834C5.00548 35.7834 5.12428 35.7705 5.24307 35.7449L14.5188 33.6443L14.8559 33.2787C14.9137 33.2177 20.5806 27.1148 24.2536 24.6967C27.1882 22.7629 33.4395 21.2139 35.6195 20.9573C36.5346 20.8515 39.649 22.1375 40.7245 27.5702L40.6507 27.6087C40.6828 27.6311 40.7149 27.6536 40.747 27.6728L42.8115 39.2213L42.8661 39.3624C43.1743 40.1417 42.8565 41.0333 42.1244 41.4406C41.6942 41.6811 41.1997 41.7196 40.7374 41.5496C40.275 41.3796 40.0118 40.9884 39.7453 40.5747C38.9169 39.2822 37.9248 37.9385 36.8492 35.5108C35.9438 33.4647 34.1554 30.3218 33.2532 26.0116L32.1199 28.2212C31.2658 28.6862 30.1164 29.3405 30.0008 29.3886L0.953574 42.268C0.144477 42.6272 -0.221543 43.5764 0.138055 44.3846C0.404544 44.9811 0.992102 45.3371 1.60535 45.3371C1.82367 45.3371 2.04521 45.2922 2.25712 45.1992L31.3043 32.3134C31.3076 32.3102 31.5291 32.2043 31.786 32.0793C33.539 35.7866 36.7979 41.8446 36.7979 41.8446C37.0579 42.47 37.4432 43.028 37.9216 43.4898C37.851 43.5187 37.7771 43.5444 37.7065 43.5764L36.6245 44.0671C36.1365 44.2884 35.7094 44.5931 35.3466 44.949C34.0688 43.6502 32.0653 43.2108 30.3122 44.0094L29.2302 44.5001C27.4772 45.2954 26.4915 47.0913 26.6328 48.9065C26.1191 48.945 25.6118 49.0701 25.127 49.2913L24.0449 49.782C21.8039 50.8019 20.8086 53.4509 21.8296 55.6894L22.0832 56.2474C21.6722 56.3051 21.2613 56.4206 20.8664 56.6002L19.7843 57.0908C18.6991 57.5847 17.8708 58.4698 17.4502 59.5859C17.0328 60.7019 17.0745 61.9142 17.5657 62.9982L19.9866 68.3122C20.4811 69.3962 21.3672 70.2236 22.4845 70.6437C23.6019 71.0606 24.8155 71.0189 25.9007 70.5283L26.9827 70.0376C27.5671 69.7714 28.068 69.3962 28.4693 68.944C28.7486 68.6329 28.9766 68.2833 29.1564 67.9113C30.1645 68.1903 31.2273 68.1102 32.1905 67.674L33.2725 67.1833C33.8504 66.9204 34.3545 66.5483 34.7655 66.0865C35.0384 65.7787 35.2696 65.4323 35.4494 65.0539C36.4222 65.3233 37.4914 65.2655 38.4803 64.8166L39.5623 64.3259C40.1466 64.0597 40.6475 63.6845 41.0488 63.2323C41.3282 62.9212 41.5561 62.5716 41.7359 62.1996C42.7441 62.4786 43.8068 62.3985 44.77 61.9623L45.852 61.4716C46.4364 61.2054 46.9373 60.8302 47.3386 60.378C48.4752 59.0984 48.8219 57.2191 48.0674 55.5643L46.6066 52.3412ZM26.3085 66.4136C26.1897 66.7279 25.9585 66.9749 25.6535 67.116L24.5715 67.6067C24.2665 67.7446 23.9262 67.7574 23.6115 67.6387C23.2969 67.5201 23.0496 67.2892 22.9084 66.9845L20.4875 61.6705C20.3494 61.3658 20.3366 61.0258 20.4554 60.7116C20.51 60.564 20.5902 60.4325 20.693 60.3171C20.8086 60.1888 20.9498 60.083 21.1104 60.0092L22.1924 59.5185C22.4974 59.3806 22.8377 59.3678 23.1524 59.4865C23.467 59.6051 23.7142 59.836 23.8555 60.1407L26.2764 65.4547C26.4144 65.7594 26.4273 66.0994 26.3085 66.4136ZM32.5983 63.5562C32.4795 63.8705 32.2483 64.1206 31.9433 64.2585L30.8613 64.7492C30.232 65.0346 29.4839 64.7556 29.1981 64.127L26.7773 58.813L24.7513 54.3617C24.5394 53.8966 24.6357 53.3675 24.9568 53.0083C25.0692 52.88 25.2104 52.7742 25.3742 52.7004L26.4562 52.2097C27.0855 51.9243 27.8336 52.2033 28.1193 52.8319L32.5662 62.5973C32.7042 62.902 32.7171 63.2419 32.5983 63.5562ZM38.888 60.6987C38.7692 61.013 38.5381 61.2632 38.233 61.4011L37.151 61.8917C36.5217 62.1772 35.7769 61.8982 35.4879 61.2696L29.9366 49.0797C29.7985 48.775 29.7857 48.4351 29.9045 48.1208C29.9591 47.9733 30.0393 47.8418 30.1421 47.7263C30.2577 47.598 30.3989 47.4922 30.5627 47.4184L31.6447 46.9278C32.274 46.6424 33.0189 46.9214 33.3078 47.5499L38.8591 59.7398C38.994 60.0445 39.0068 60.3844 38.888 60.6987ZM45.1778 57.8413C45.059 58.1556 44.8278 58.4025 44.5228 58.5436L43.4408 59.0343C42.8115 59.3197 42.0634 59.0407 41.7777 58.4121L37.3308 48.6467C37.1189 48.1817 37.2153 47.6526 37.5363 47.2934C37.6487 47.1651 37.79 47.0593 37.9537 46.9855L39.0357 46.4948C39.665 46.2094 40.4131 46.4884 40.6989 47.117L45.1457 56.8824C45.2837 57.187 45.2966 57.527 45.1778 57.8413Z" fill="#FF6025"/>
</g>
<defs>
<clipPath id="clip0_418_10019">
<rect width="96" height="72" fill="white"/>
</clipPath>
</defs>
</svg>
