<svg width="24" height="24" viewBox="0 0 24 24" fill="none" xmlns="http://www.w3.org/2000/svg">
<path d="M0 8.05C0 5.20255 0 3.77882 0.562933 2.69513C1.03731 1.78191 1.78191 1.03731 2.69513 0.562933C3.77882 0 5.20255 0 8.05 0H15.95C18.7975 0 20.2212 0 21.3049 0.562933C22.2181 1.03731 22.9627 1.78191 23.4371 2.69513C24 3.77882 24 5.20255 24 8.05V15.95C24 18.7975 24 20.2212 23.4371 21.3049C22.9627 22.2181 22.2181 22.9627 21.3049 23.4371C20.2212 24 18.7975 24 15.95 24H8.05C5.20255 24 3.77882 24 2.69513 23.4371C1.78191 22.9627 1.03731 22.2181 0.562933 21.3049C0 20.2212 0 18.7975 0 15.95V8.05Z" fill="url(#paint0_linear_1441_739)"/>
<path d="M16.6667 15.3333L17.2 12H14V9.66666C14 8.73332 14.3333 7.99999 15.8 7.99999H17.3333V4.93332C16.4667 4.79999 15.5333 4.66666 14.6667 4.66666C11.9333 4.66666 10 6.33332 10 9.33332V12H7V15.3333H10V24C11.3333 24 12.6667 24 14 24V15.3333H16.6667Z" fill="white"/>
<defs>
<linearGradient id="paint0_linear_1441_739" x1="12" y1="23.2988" x2="12" y2="0" gradientUnits="userSpaceOnUse">
<stop stop-color="#0062E0"/>
<stop offset="1" stop-color="#19AFFF"/>
</linearGradient>
</defs>
</svg>
