<svg width="125" height="126" viewBox="0 0 125 126" fill="none" xmlns="http://www.w3.org/2000/svg">
<path d="M58.0365 6.92019C60.491 5.49145 64.5084 5.49145 66.9641 6.92019L71.5441 9.58661C73.9986 11.0154 78.3271 12.1845 81.162 12.1845H86.4513C89.2861 12.1845 92.7646 14.2093 94.1832 16.6847L96.8273 21.3025C98.2447 23.7767 101.413 26.9706 103.868 28.3994L108.449 31.0658C110.904 32.4945 112.912 36.0021 112.912 38.8596V44.1912C112.912 47.0487 114.072 51.4106 115.49 53.886L118.135 58.5027C119.552 60.9768 119.552 65.0263 118.135 67.5017L115.49 72.1184C114.072 74.5925 112.912 78.9557 112.912 81.8132V87.1448C112.912 90.0023 110.904 93.5087 108.449 94.9386L103.868 97.605C101.413 99.0326 98.2447 102.227 96.8273 104.702L94.1832 109.32C92.7658 111.794 89.2873 113.819 86.4513 113.819H81.162C78.3271 113.819 73.9998 114.988 71.5441 116.417L66.9641 119.083C64.5096 120.512 60.4922 120.512 58.0365 119.083L53.4553 116.417C51.0007 114.988 46.6722 113.819 43.8374 113.819H38.5481C35.7133 113.819 32.2348 111.794 30.8162 109.32L28.1721 104.702C26.7547 102.227 23.5861 99.0338 21.1316 97.605L16.5503 94.9386C14.0946 93.5099 12.0859 90.0035 12.0859 87.1448V81.8132C12.0859 78.9557 10.9272 74.5925 9.50863 72.1184L6.86576 67.4993C5.44835 65.0239 5.44835 60.9744 6.86576 58.5003L9.51102 53.8836C10.9272 51.4082 12.0871 47.0463 12.0871 44.1888V38.8572C12.0871 35.9997 14.0958 32.4921 16.5515 31.0634L21.1328 28.397C23.5873 26.9682 26.7559 23.7743 28.1733 21.3001L30.8174 16.6823C32.2348 14.2081 35.7133 12.1821 38.5493 12.1821H43.8386C46.6734 12.1821 51.0019 11.013 53.4564 9.58421L58.0365 6.92019Z" fill="#FF9870"/>
<path d="M62.501 124.941C60.5555 124.941 58.7197 124.496 57.3309 123.689L52.4302 120.836C49.9411 119.387 45.4087 118.163 42.5334 118.163H36.8745C33.5831 118.163 29.5657 115.825 27.9195 112.951L25.0894 108.011C23.6518 105.502 20.3342 102.158 17.8451 100.709L12.9455 97.8574C10.0952 96.1991 7.77661 92.1496 7.77661 88.8319V83.1277C7.77661 80.2294 6.56187 75.662 5.1242 73.1518L2.29416 68.2119C0.647877 65.3388 0.647877 60.6632 2.29416 57.7901L5.1242 52.8502C6.56187 50.3412 7.77661 45.7726 7.77661 42.8754V37.1689C7.77661 33.8512 10.0952 29.8029 12.9455 28.1434L17.8463 25.2907C20.3353 23.8416 23.653 20.4974 25.0906 17.9884L27.9207 13.0485C29.5669 10.1754 33.5831 7.83703 36.8757 7.83703H42.5346C45.4099 7.83703 49.9411 6.61256 52.4313 5.16459L57.3321 2.31192C58.7197 1.50442 60.5555 1.05981 62.501 1.05981C64.4465 1.05981 66.2823 1.50442 67.6711 2.31192L72.5718 5.16459C75.0609 6.61376 79.5933 7.83703 82.4674 7.83703H88.1275C91.4189 7.83703 95.435 10.1742 97.0813 13.0485L99.9113 17.9884C101.348 20.4974 104.665 23.8416 107.156 25.2907L112.056 28.1434C114.907 29.8017 117.227 33.8512 117.227 37.1689V42.873C117.227 45.7714 118.44 50.3388 119.878 52.8478L122.708 57.7877C124.353 60.6608 124.353 65.3364 122.708 68.2095L119.878 73.1494C118.441 75.6596 117.227 80.227 117.227 83.1253V88.8295C117.227 92.1472 114.907 96.1967 112.056 97.855L107.156 100.708C104.665 102.157 101.348 105.501 99.9113 108.01L97.0813 112.95C95.435 115.823 91.4189 118.161 88.1275 118.161H82.4674C79.5933 118.161 75.0609 119.386 72.5718 120.835L67.6711 123.688C66.2823 124.495 64.4465 124.941 62.501 124.941ZM36.8745 9.42679C34.1315 9.42679 30.6565 11.4491 29.2844 13.8428L26.4544 18.7827C24.876 21.538 21.3677 25.0757 18.633 26.6666L13.7323 29.5181C11.3577 30.9 9.35018 34.4039 9.35018 37.1677V42.8718C9.35018 46.0538 8.06629 50.8855 6.48796 53.6409L3.65911 58.5832C2.2882 60.9768 2.2882 65.0227 3.65911 67.4164L6.48915 72.3563C8.06748 75.1129 9.35137 79.9434 9.35137 83.1265V88.8307C9.35137 91.5957 11.3589 95.0984 13.7335 96.4803L18.6342 99.333C21.3689 100.924 24.8772 104.462 26.4556 107.217L29.2856 112.157C30.6565 114.55 34.1327 116.574 36.8757 116.574H42.5346C45.6924 116.574 50.4847 117.869 53.2193 119.459L58.12 122.312C59.2561 122.973 60.8523 123.351 62.5022 123.351C64.1508 123.351 65.7483 122.971 66.8843 122.312L71.785 119.459C74.5185 117.868 79.3119 116.574 82.4686 116.574H88.1287C90.8705 116.574 94.3466 114.552 95.7176 112.157L98.5476 107.217C100.126 104.462 103.634 100.924 106.368 99.333L111.27 96.4803C113.644 95.0984 115.652 91.5957 115.652 88.8307V83.1265C115.652 79.9434 116.936 75.1129 118.514 72.3563L121.344 67.4164C122.715 65.0215 122.715 60.9768 121.344 58.5832L118.514 53.6421C116.936 50.8867 115.652 46.055 115.652 42.873V37.1689C115.652 34.4039 113.645 30.9012 111.27 29.5193L106.368 26.6678C103.634 25.0757 100.126 21.5392 98.5476 18.7839L95.7176 13.844C94.3466 11.4503 90.8705 9.42799 88.1287 9.42799H82.4686C79.3119 9.42799 74.5185 8.13263 71.785 6.54166L66.8843 3.68899C65.7483 3.02809 64.1508 2.64957 62.5022 2.64957C60.8535 2.64957 59.2561 3.02809 58.12 3.68899L53.2193 6.54166C50.4847 8.13263 45.6924 9.42799 42.5346 9.42799H36.8745V9.42679Z" fill="#FF9870"/>
<path d="M97.8745 98.6574C117.411 78.9644 117.411 47.0356 97.8745 27.3426C78.3377 7.64949 46.6624 7.64949 27.1256 27.3426C7.58884 47.0356 7.58884 78.9644 27.1256 98.6574C46.6624 118.35 78.3377 118.351 97.8745 98.6574Z" fill="#1E1E1E"/>
<path d="M95.4272 66.0169C97.0796 47.6875 83.6782 31.4784 65.4943 29.8128C47.3104 28.1471 31.2299 41.6557 29.5775 59.9851C27.9251 78.3145 41.3265 94.5236 59.5104 96.1892C77.6942 97.8549 93.7748 84.3463 95.4272 66.0169Z" fill="#1E1E1E"/>
<path d="M61.0501 68.9801V72.3159C61.0501 75.0532 60.286 77.2089 58.7589 78.7831C57.2319 80.3572 55.1266 81.1443 52.4456 81.1443C49.7634 81.1443 47.6593 80.3572 46.1322 78.7831C44.6052 77.2101 43.841 75.0544 43.841 72.3159V71.238L49.035 70.7249V71.9049C49.035 74.6434 50.1377 76.0109 52.3443 76.0109C53.3969 76.0109 54.2111 75.7033 54.7881 75.0868C55.365 74.4716 55.6535 73.5812 55.6535 72.418V68.6713C55.6535 67.2342 55.3305 66.1911 54.6855 65.5411C54.0406 64.8922 53.0059 64.5653 51.5801 64.5653H49.4415V59.4332H51.2237C52.6494 59.4332 53.6842 59.1087 54.3291 58.4574C54.974 57.8074 55.2971 56.7631 55.2971 55.3272V52.5562C55.2971 51.4964 55.0336 50.6925 54.5079 50.1445C53.981 49.5978 53.2264 49.3238 52.2429 49.3238C50.2068 49.3238 49.1876 50.5735 49.1876 53.0705V53.8912H43.9948V52.6596C43.9948 50.0592 44.7327 47.9984 46.2097 46.4748C47.6867 44.9523 49.7312 44.1917 52.3443 44.1917C54.9573 44.1917 57.003 44.9535 58.48 46.4748C59.957 47.9972 60.6949 50.0592 60.6949 52.6596V55.0196C60.6949 56.6285 60.3718 58.014 59.7281 59.1772C59.0832 60.3404 58.1319 61.2476 56.8766 61.8977C59.659 63.1991 61.0501 65.5603 61.0501 68.9801Z" fill="white"/>
<path d="M65.2249 78.7578C63.6287 77.1669 62.8324 75.0712 62.8324 72.4709V52.865C62.8324 50.2647 63.6299 48.1691 65.2249 46.5781C66.8199 44.9871 68.9073 44.1917 71.487 44.1917C74.0667 44.1917 76.154 44.9871 77.7491 46.5781C79.3441 48.1691 80.1416 50.2647 80.1416 52.865V72.4697C80.1416 75.07 79.3441 77.1657 77.7491 78.7566C76.1528 80.3476 74.0655 81.1431 71.487 81.1431C68.9073 81.1443 66.8199 80.3488 65.2249 78.7578ZM73.8807 75.088C74.4577 74.4728 74.7462 73.5992 74.7462 72.4709V52.865C74.7462 51.7355 74.4577 50.8631 73.8807 50.2479C73.3025 49.6314 72.505 49.3238 71.487 49.3238C70.4689 49.3238 69.6702 49.6314 69.0944 50.2479C68.5175 50.8643 68.229 51.7367 68.229 52.865V72.4697C68.229 73.5992 68.5175 74.4716 69.0944 75.0868C69.6714 75.7033 70.4689 76.0109 71.487 76.0109C72.505 76.0121 73.3025 75.7033 73.8807 75.088Z" fill="white"/>
<path d="M29.2295 77.6742L21.1961 80.2592L20.6592 78.5594C20.402 77.7447 20.2762 77.0766 20.2873 76.5523C20.2817 75.9941 20.402 75.4501 20.648 74.9173C21.1402 73.8376 22.0014 73.1019 23.2317 72.7044C24.4676 72.3069 25.6029 72.4225 26.643 73.0455C27.1631 73.3612 27.5741 73.7333 27.8733 74.1646C28.1641 74.5649 28.441 75.1738 28.701 75.9969L29.2295 77.6742ZM27.7028 76.8173L27.5294 76.2676C27.356 75.7179 27.1547 75.2809 26.9254 74.9539C26.6878 74.6298 26.3914 74.362 26.0363 74.1534C25.3009 73.7277 24.4956 73.6544 23.6232 73.9363C22.7424 74.221 22.1216 74.7482 21.7609 75.5177C21.4422 76.2112 21.4477 77.0766 21.7749 78.1196L21.9483 78.6693L27.7028 76.8173Z" fill="#FF9870"/>
<path d="M24.5627 65.4034L24.8843 69.0285L27.0066 69.7896L27.1296 71.1653L17.8323 67.7769L26.3998 62.9312L26.5228 64.3293L24.5627 65.4034ZM23.4191 66.032L20.6732 67.5458L23.6456 68.6057L23.4191 66.032Z" fill="#FF9870"/>
<path d="M23.1171 60.4336L18.0756 62.7085L18.2238 61.2398L21.7693 59.6471L18.6125 57.3666L18.7607 55.8979L23.2485 59.1566L26.8723 59.5259L26.7437 60.8029L23.1171 60.4336Z" fill="#FF9870"/>
<path d="M21.8421 49.3328L22.1413 50.5054C21.7666 50.5985 21.5038 50.714 21.3584 50.855C21.1962 50.9988 21.0731 51.2102 20.9949 51.4893C20.897 51.8303 20.911 52.1433 21.0368 52.4251C21.1598 52.707 21.3667 52.8875 21.652 52.972C22.0462 53.0876 22.4517 52.8846 22.8627 52.3631L23.4275 51.6443C23.8833 51.058 24.3475 50.6689 24.82 50.4744C25.2926 50.2799 25.8043 50.263 26.3607 50.4265C27.1045 50.6436 27.6497 51.0749 27.9909 51.7176C28.3348 52.3659 28.3991 53.0622 28.1838 53.8092C27.9797 54.5168 27.6022 55.0411 27.0542 55.3822C26.5061 55.7149 25.8406 55.8276 25.0521 55.7205L25.1388 54.3928C25.6309 54.4745 25.9888 54.4717 26.2097 54.3843C26.6319 54.2321 26.9143 53.9136 27.0542 53.4287C27.166 53.0453 27.1296 52.6873 26.9479 52.3603C26.7661 52.0305 26.4781 51.8106 26.0867 51.695C25.9301 51.6499 25.7791 51.6302 25.6337 51.6358C25.4911 51.6415 25.3485 51.6753 25.2115 51.7373C25.0745 51.7993 24.9375 51.8895 24.7976 52.0079C24.6578 52.1263 24.5152 52.2786 24.3698 52.4562L23.819 53.1496C23.0277 54.1306 22.1832 54.4886 21.2801 54.2236C20.6705 54.046 20.2315 53.6627 19.9575 53.0735C19.6807 52.4843 19.6415 51.8388 19.8428 51.1425C20.1141 50.1982 20.7796 49.5949 21.8421 49.3328Z" fill="#FF9870"/>
<path d="M37.3943 35.2182L34.7966 37.7468L35.5432 39.8892L34.5562 40.8505L31.335 31.4268L40.4561 35.1083L39.4551 36.0837L37.3943 35.2182ZM36.1919 34.7136L33.3007 33.51L34.3493 36.5065L36.1919 34.7136Z" fill="#FF9870"/>
<path d="M41.1104 26.147L38.6386 27.7482L39.7347 29.4677L42.1198 27.9229L42.7657 28.9378L40.3806 30.4825L42.5504 33.8878L41.4795 34.5813L36.9217 27.4296L40.4645 25.135L41.1104 26.147Z" fill="#FF9870"/>
<path d="M45.7157 23.9425L48.607 30.629L47.441 31.1421L44.5497 24.4527L42.7714 25.2336L42.2932 24.1286L47.0103 22.0566L47.4885 23.1617L45.7157 23.9425Z" fill="#FF9870"/>
<path d="M54.3727 21.2673L51.09 22.0848L51.5765 24.0693L54.7641 23.2772L55.0493 24.447L51.8617 25.2392L52.5356 27.9961L55.8183 27.1786L56.1035 28.3485L51.5849 29.4732L49.5688 21.2222L54.0875 20.0974L54.3727 21.2673Z" fill="#FF9870"/>
<path d="M60.5047 24.323L63.3121 27.7932L61.7574 27.8805L59.1597 24.5429L58.9305 24.557L59.1234 28.03L57.8539 28.1032L57.3814 19.6154L58.8689 19.5308C59.9818 19.4688 60.7955 19.6323 61.3156 20.027C61.886 20.4639 62.1936 21.07 62.2383 21.8396C62.2719 22.44 62.1293 22.9671 61.8133 23.4182C61.4973 23.8692 61.0583 24.1708 60.5047 24.323ZM58.8689 23.4407L59.2716 23.4182C60.4739 23.3505 61.05 22.8516 60.9996 21.9241C60.9521 21.0559 60.3425 20.6556 59.1709 20.7204L58.7179 20.7458L58.8689 23.4407Z" fill="#FF9870"/>
<path d="M78.0618 27.8185L76.6134 30.9476L75.4614 30.4063L79.0265 22.7021L80.3323 23.3167C80.9726 23.6183 81.434 23.8889 81.7192 24.1342C82.0072 24.3794 82.2197 24.6867 82.3539 25.0531C82.5916 25.693 82.558 26.3414 82.2533 26.9982C81.9261 27.703 81.434 28.1512 80.7741 28.3429C80.1142 28.5345 79.3872 28.4443 78.5931 28.0694L78.0618 27.8185ZM78.5623 26.7417L78.9929 26.9447C80.0527 27.4436 80.7713 27.2801 81.1516 26.4598C81.5207 25.6649 81.1572 25.0109 80.0667 24.4978L79.6864 24.3174L78.5623 26.7417Z" fill="#FF9870"/>
<path d="M87.0096 27.046L83.9813 31.156C83.5479 31.7424 83.327 32.2413 83.3187 32.6557C83.3131 33.259 83.5675 33.7551 84.082 34.1413C84.5993 34.5303 85.1445 34.6318 85.715 34.4542C86.098 34.333 86.5091 33.9778 86.9481 33.383L89.9763 29.273L90.9969 30.0369L87.759 34.4288C87.2277 35.1477 86.5706 35.5733 85.7821 35.7058C84.9013 35.8496 84.096 35.6494 83.369 35.1054C82.642 34.5613 82.2198 33.8425 82.1051 32.9517C82.0045 32.1539 82.2198 31.3957 82.7482 30.6768L85.9862 26.2849L87.0096 27.046Z" fill="#FF9870"/>
<path d="M92.0231 38.102L91.0472 42.4713L90.0182 41.293L91.0192 37.1717L90.8683 36.9969L88.2762 39.2944L87.4373 38.3303L93.7707 32.7178L94.7549 33.8454C95.4903 34.6882 95.865 35.4381 95.8762 36.092C95.8874 36.8165 95.605 37.431 95.0318 37.9413C94.5844 38.3387 94.0838 38.5502 93.5358 38.5784C92.9877 38.6065 92.4844 38.4459 92.0231 38.102ZM91.7015 36.2584L91.9672 36.5656C92.7641 37.479 93.5078 37.6284 94.1985 37.0138C94.8472 36.4388 94.7829 35.7087 94.0084 34.8207L93.7092 34.4768L91.7015 36.2584Z" fill="#FF9870"/>
<path d="M101.723 44.8702L100.417 45.6257C100.585 44.6729 100.473 43.8554 100.082 43.1676C99.651 42.4093 99.0163 41.9272 98.1803 41.7215C97.347 41.51 96.5417 41.6284 95.7644 42.0795C94.9982 42.522 94.4977 43.1591 94.2684 43.9851C94.0391 44.811 94.1398 45.606 94.5704 46.3614C94.7941 46.7533 95.0457 47.0493 95.3282 47.2494C95.4792 47.365 95.6525 47.4749 95.8538 47.5764C96.0552 47.6779 96.2817 47.7766 96.5361 47.8696L95.2051 48.6391C94.4865 48.2079 93.9273 47.6441 93.5274 46.9421C92.9262 45.8879 92.7809 44.7772 93.0856 43.6102C93.3988 42.4431 94.0755 41.558 95.1129 40.9575C96.044 40.4191 97.0506 40.2472 98.1355 40.4473C99.4637 40.6954 100.473 41.4227 101.164 42.6376C101.544 43.3029 101.729 44.0443 101.723 44.8702Z" fill="#FF9870"/>
<path d="M100.795 50.3588L101.829 53.8741L104.992 52.9269L105.352 54.156L97.2687 56.5746L96.9079 55.3455L100.683 54.218L99.6482 50.7028L95.8734 51.8303L95.5127 50.6013L103.596 48.1826L103.957 49.4117L100.795 50.3588Z" fill="#FF9870"/>
<path d="M99.9445 63.4697L99.7404 59.8361L97.6433 59.0074L97.565 57.6289L106.748 61.3189L98.0264 65.8799L97.9481 64.4789L99.9445 63.4697ZM101.111 62.8806L103.901 61.457L100.965 60.3013L101.111 62.8806Z" fill="#FF9870"/>
<path d="M104.17 72.8287L103.719 71.7067C104.08 71.5658 104.323 71.4136 104.449 71.2557C104.592 71.0922 104.684 70.8667 104.729 70.5792C104.782 70.2268 104.726 69.9195 104.564 69.6574C104.404 69.3952 104.178 69.243 103.882 69.1979C103.473 69.1359 103.101 69.3896 102.76 69.9618L102.293 70.7483C101.916 71.3882 101.508 71.8364 101.066 72.0929C100.624 72.3494 100.118 72.434 99.5448 72.3466C98.7786 72.2282 98.183 71.8759 97.7608 71.2839C97.3358 70.6863 97.1792 70.0041 97.2938 69.2345C97.4029 68.5044 97.7077 67.935 98.2082 67.5262C98.7059 67.1231 99.3546 66.923 100.149 66.9258L100.235 68.2535C99.7377 68.2366 99.3826 68.2874 99.1757 68.4029C98.7758 68.6087 98.5381 68.9639 98.4654 69.4629C98.4067 69.8575 98.4878 70.2071 98.7115 70.5087C98.9352 70.8103 99.2484 70.9907 99.651 71.0527C99.8132 71.0781 99.9642 71.0781 100.107 71.0527C100.249 71.0274 100.384 70.9766 100.512 70.8977C100.641 70.8188 100.764 70.7116 100.887 70.5735C101.01 70.4354 101.13 70.2691 101.253 70.0717L101.709 69.3106C102.363 68.2338 103.157 67.7659 104.086 67.9068C104.712 68.0026 105.199 68.324 105.548 68.8709C105.9 69.4178 106.023 70.052 105.914 70.7708C105.769 71.7406 105.187 72.4284 104.17 72.8287Z" fill="#FF9870"/>
<path d="M101.908 80.375L103.018 77.1557L101.102 76.4848L100.026 79.611L98.896 79.2164L99.9726 76.0902L97.3106 75.1571L96.2005 78.3763L95.0709 77.9817L96.5976 73.5503L104.564 76.3382L103.037 80.7696L101.908 80.375Z" fill="#FF9870"/>
<path d="M62.2163 94.1733L63.6393 98.5895H68.2462L64.5191 101.319L65.942 105.735L62.2163 103.006L58.4891 105.735L59.9121 101.319L56.1849 98.5895H60.7919L62.2163 94.1733Z" fill="#FF9870"/>
<path d="M82.0815 90.7749L82.918 93.371H85.6263L83.4352 94.9758L84.2717 97.5718L82.0815 95.967L79.8904 97.5718L80.7269 94.9758L78.5358 93.371H81.2441L82.0815 90.7749Z" fill="#FF9870"/>
<path d="M42.3893 90.7749L43.2258 93.371H45.9341L43.743 94.9758L44.5795 97.5718L42.3893 95.967L40.1983 97.5718L41.0348 94.9758L38.8437 93.371H41.552L42.3893 90.7749Z" fill="#FF9870"/>
</svg>
