<svg width="24" height="24" viewBox="0 0 24 24" fill="none" xmlns="http://www.w3.org/2000/svg">
<g clip-path="url(#clip0_1441_738)">
<path d="M0.0136719 8.05C0.0136719 5.20255 0.0136719 3.77882 0.576605 2.69513C1.05098 1.78191 1.79558 1.03731 2.7088 0.562933C3.79249 0 5.21622 0 8.06367 0H15.9637C18.8111 0 20.2349 0 21.3185 0.562933C22.2318 1.03731 22.9764 1.78191 23.4507 2.69513C24.0137 3.77882 24.0137 5.20255 24.0137 8.05V15.95C24.0137 18.7975 24.0137 20.2212 23.4507 21.3049C22.9764 22.2181 22.2318 22.9627 21.3185 23.4371C20.2349 24 18.8111 24 15.9637 24H8.06367C5.21622 24 3.79249 24 2.7088 23.4371C1.79558 22.9627 1.05098 22.2181 0.576605 21.3049C0.0136719 20.2212 0.0136719 18.7975 0.0136719 15.95V8.05Z" fill="url(#paint0_radial_1441_738)"/>
<path d="M0.0136719 8.05C0.0136719 5.20255 0.0136719 3.77882 0.576605 2.69513C1.05098 1.78191 1.79558 1.03731 2.7088 0.562933C3.79249 0 5.21622 0 8.06367 0H15.9637C18.8111 0 20.2349 0 21.3185 0.562933C22.2318 1.03731 22.9764 1.78191 23.4507 2.69513C24.0137 3.77882 24.0137 5.20255 24.0137 8.05V15.95C24.0137 18.7975 24.0137 20.2212 23.4507 21.3049C22.9764 22.2181 22.2318 22.9627 21.3185 23.4371C20.2349 24 18.8111 24 15.9637 24H8.06367C5.21622 24 3.79249 24 2.7088 23.4371C1.79558 22.9627 1.05098 22.2181 0.576605 21.3049C0.0136719 20.2212 0.0136719 18.7975 0.0136719 15.95V8.05Z" fill="url(#paint1_radial_1441_738)"/>
<path d="M12.0004 3.27274C9.63027 3.27274 9.33282 3.2831 8.40194 3.32546C7.47288 3.36801 6.83872 3.5151 6.28383 3.73092C5.70984 3.95383 5.22295 4.25201 4.73787 4.73728C4.25243 5.22237 3.95426 5.70928 3.73063 6.2831C3.51427 6.83819 3.367 7.47255 3.32519 8.40128C3.28355 9.33219 3.27264 9.62983 3.27264 12C3.27264 14.3702 3.28319 14.6667 3.32537 15.5976C3.3681 16.5267 3.51518 17.1609 3.73081 17.7158C3.9539 18.2898 4.25207 18.7767 4.73733 19.2618C5.22222 19.7473 5.70912 20.0462 6.28273 20.2691C6.83799 20.4849 7.47233 20.632 8.40122 20.6746C9.3321 20.7169 9.62936 20.7273 11.9993 20.7273C14.3696 20.7273 14.6661 20.7169 15.597 20.6746C16.5261 20.632 17.161 20.4849 17.7162 20.2691C18.29 20.0462 18.7762 19.7473 19.2611 19.2618C19.7465 18.7767 20.0447 18.2898 20.2683 17.716C20.4828 17.1609 20.6301 16.5266 20.6738 15.5978C20.7156 14.6669 20.7265 14.3702 20.7265 12C20.7265 9.62983 20.7156 9.33237 20.6738 8.40146C20.6301 7.47237 20.4828 6.83819 20.2683 6.28328C20.0447 5.70928 19.7465 5.22237 19.2611 4.73728C18.7756 4.25183 18.2902 3.95364 17.7157 3.73092C17.1593 3.5151 16.5248 3.36801 15.5957 3.32546C14.6648 3.2831 14.3685 3.27274 11.9977 3.27274H12.0004ZM11.2175 4.84546C11.4499 4.8451 11.7091 4.84546 12.0004 4.84546C14.3305 4.84546 14.6067 4.85383 15.5268 4.89564C16.3777 4.93455 16.8395 5.07674 17.1471 5.19619C17.5544 5.35437 17.8447 5.54346 18.15 5.84892C18.4555 6.15437 18.6445 6.44528 18.8031 6.85255C18.9225 7.15983 19.0649 7.62164 19.1036 8.47255C19.1454 9.39255 19.1545 9.66892 19.1545 11.998C19.1545 14.3271 19.1454 14.6035 19.1036 15.5235C19.0647 16.3744 18.9225 16.8362 18.8031 17.1435C18.6449 17.5507 18.4555 17.8407 18.15 18.146C17.8446 18.4515 17.5546 18.6406 17.1471 18.7987C16.8399 18.9187 16.3777 19.0606 15.5268 19.0995C14.6068 19.1413 14.3305 19.1504 12.0004 19.1504C9.67009 19.1504 9.39391 19.1413 8.47394 19.0995C7.62306 19.0602 7.16125 18.918 6.85344 18.7986C6.44618 18.6404 6.15528 18.4513 5.84984 18.1458C5.54439 17.8404 5.35531 17.5502 5.19677 17.1427C5.07732 16.8355 4.93496 16.3736 4.89623 15.5227C4.85441 14.6027 4.84605 14.3264 4.84605 11.9958C4.84605 9.66528 4.85441 9.39037 4.89623 8.47037C4.93514 7.61946 5.07732 7.15764 5.19677 6.85001C5.35494 6.44274 5.54439 6.15183 5.84984 5.84637C6.15528 5.54092 6.44618 5.35183 6.85344 5.19328C7.16107 5.07328 7.62306 4.93146 8.47394 4.89237C9.27901 4.85601 9.591 4.8451 11.2175 4.84328V4.84546ZM16.6588 6.29455C16.0806 6.29455 15.6115 6.7631 15.6115 7.34146C15.6115 7.91964 16.0806 8.38874 16.6588 8.38874C17.2369 8.38874 17.706 7.91964 17.706 7.34146C17.706 6.76328 17.2369 6.29419 16.6588 6.29419V6.29455ZM12.0004 7.51819C9.52536 7.51819 7.5187 9.52492 7.5187 12C7.5187 14.4751 9.52536 16.4809 12.0004 16.4809C14.4754 16.4809 16.4813 14.4751 16.4813 12C16.4813 9.52492 14.4752 7.51819 12.0002 7.51819H12.0004ZM12.0004 9.09092C13.6069 9.09092 14.9094 10.3933 14.9094 12C14.9094 13.6066 13.6069 14.9091 12.0004 14.9091C10.3937 14.9091 9.09138 13.6066 9.09138 12C9.09138 10.3933 10.3937 9.09092 12.0004 9.09092Z" fill="white"/>
</g>
<defs>
<radialGradient id="paint0_radial_1441_738" cx="0" cy="0" r="1" gradientUnits="userSpaceOnUse" gradientTransform="translate(6.3887 25.8485) rotate(-90) scale(23.7858 22.1226)">
<stop stop-color="#FFDD55"/>
<stop offset="0.1" stop-color="#FFDD55"/>
<stop offset="0.5" stop-color="#FF543E"/>
<stop offset="1" stop-color="#C837AB"/>
</radialGradient>
<radialGradient id="paint1_radial_1441_738" cx="0" cy="0" r="1" gradientUnits="userSpaceOnUse" gradientTransform="translate(-4.00646 1.72892) rotate(78.6806) scale(10.6323 43.827)">
<stop stop-color="#3771C8"/>
<stop offset="0.128" stop-color="#3771C8"/>
<stop offset="1" stop-color="#6600FF" stop-opacity="0"/>
</radialGradient>
<clipPath id="clip0_1441_738">
<rect width="24" height="24" fill="white"/>
</clipPath>
</defs>
</svg>
