<svg width="108" height="32" viewBox="0 0 108 32" fill="none" xmlns="http://www.w3.org/2000/svg">
<g clip-path="url(#clip0_3319_96)">
<rect x="-0.124023" y="-0.0310059" width="32.0726" height="32.062" fill="#FF4400"/>
<path d="M34.6839 -0.0310059H107.593V32.031H34.6839V-0.0310059Z" fill="#121212"/>
<path fill-rule="evenodd" clip-rule="evenodd" d="M104.982 2.57869H37.2944V29.4213H104.982V2.57869ZM34.6839 -0.0310059V32.031H107.593V-0.0310059H34.6839Z" fill="#FF4400"/>
<path fill-rule="evenodd" clip-rule="evenodd" d="M3.97804 6.4314H5.34548H6.58861H7.21017L7.95605 7.17702L8.70193 6.4314H9.32349H10.5666H11.9341L13.3015 7.79838V25.5692H10.5666V9.16537H9.32349V25.5692H6.58861V9.16537H5.34548V25.5692H2.6106V9.16537V7.79838L3.97804 6.4314ZM14.5446 17.3673V25.5692H17.2795V17.3673H18.5226V25.5692H21.2575V7.79838L19.8901 6.4314H18.5226H17.2795H15.9121L14.5446 7.79838V9.16537V14.6333V17.3673ZM17.2795 14.6333H18.5226V9.16537H17.2795V14.6333ZM22.5007 22.8352V9.16537V6.4314H25.2355H26.4787H27.5975L29.2135 8.04692V23.9537L27.5975 25.5692H26.4787H25.2355H22.5007V22.8352ZM26.4787 9.16537V22.8352H25.2355V9.16537H26.4787Z" fill="#121212"/>
<path d="M42.764 20.229L44.1983 11.7927H46.3721L48.0641 16.2906L49.7449 11.7927H51.9187L53.353 20.229H51.168L50.4396 15.3731L48.4451 20.229H47.5711L45.6774 15.3731L44.949 20.229H42.764Z" fill="#FF4400"/>
<path d="M57.3887 11.7927V16.3801C57.3887 16.6262 57.3961 16.8799 57.4111 17.1409C57.4335 17.3945 57.4895 17.6258 57.5792 17.8346C57.6763 18.0435 57.8257 18.215 58.0274 18.3493C58.2291 18.4761 58.5129 18.5395 58.879 18.5395C59.245 18.5395 59.5252 18.4761 59.7194 18.3493C59.9211 18.215 60.0705 18.0435 60.1676 17.8346C60.2647 17.6258 60.3207 17.3945 60.3357 17.1409C60.3581 16.8799 60.3693 16.6262 60.3693 16.3801V11.7927H62.5543V16.6822C62.5543 17.995 62.2518 18.9535 61.6467 19.5577C61.0491 20.1619 60.1265 20.464 58.879 20.464C57.6315 20.464 56.7051 20.1619 56.1001 19.5577C55.495 18.9535 55.1924 17.995 55.1924 16.6822V11.7927H57.3887Z" fill="#FF4400"/>
<path d="M69.4168 13.9521C69.1777 13.7582 68.9387 13.6165 68.6997 13.527C68.4606 13.43 68.229 13.3815 68.0049 13.3815C67.7211 13.3815 67.4895 13.4487 67.3102 13.5829C67.1309 13.7172 67.0413 13.8925 67.0413 14.1088C67.0413 14.258 67.0861 14.3811 67.1757 14.478C67.2654 14.575 67.3812 14.6608 67.5231 14.7354C67.6725 14.8025 67.8368 14.8622 68.0161 14.9144C68.2029 14.9666 68.3859 15.0225 68.5652 15.0822C69.2823 15.3209 69.8053 15.6416 70.1339 16.0444C70.4701 16.4398 70.6382 16.9582 70.6382 17.5997C70.6382 18.0323 70.5635 18.4239 70.4141 18.7745C70.2721 19.1251 70.0592 19.4272 69.7754 19.6808C69.499 19.9269 69.1553 20.1171 68.7445 20.2514C68.3411 20.3931 67.8817 20.464 67.3662 20.464C66.298 20.464 65.3082 20.147 64.3968 19.5129L65.3381 17.7451C65.6667 18.036 65.9917 18.2523 66.3129 18.3941C66.6341 18.5358 66.9516 18.6066 67.2654 18.6066C67.6239 18.6066 67.8891 18.5246 68.061 18.3605C68.2402 18.1964 68.3299 18.0099 68.3299 17.8011C68.3299 17.6743 68.3075 17.5661 68.2627 17.4766C68.2178 17.3796 68.1431 17.2938 68.0385 17.2192C67.934 17.1372 67.7958 17.0626 67.6239 16.9955C67.4596 16.9283 67.2579 16.8538 67.0189 16.7717C66.735 16.6822 66.4549 16.5852 66.1785 16.4808C65.9095 16.3689 65.6667 16.2235 65.4501 16.0444C65.2409 15.8654 65.0691 15.6416 64.9347 15.3731C64.8077 15.0971 64.7442 14.7503 64.7442 14.3326C64.7442 13.9149 64.8114 13.5382 64.9459 13.2025C65.0878 12.8594 65.282 12.5685 65.5286 12.3298C65.7825 12.0836 66.0888 11.8934 66.4474 11.7592C66.8134 11.6249 67.2206 11.5578 67.6688 11.5578C68.0871 11.5578 68.5241 11.6174 68.9798 11.7368C69.4355 11.8487 69.8725 12.0165 70.2908 12.2403L69.4168 13.9521Z" fill="#FF4400"/>
<path d="M78.5546 14.6123C78.0466 13.9932 77.4191 13.6836 76.6721 13.6836C76.3434 13.6836 76.0371 13.7433 75.7532 13.8626C75.4768 13.982 75.2378 14.1461 75.0361 14.3549C74.8344 14.5563 74.6738 14.7988 74.5543 15.0822C74.4422 15.3657 74.3862 15.6715 74.3862 15.9997C74.3862 16.3353 74.4422 16.6449 74.5543 16.9283C74.6738 17.2118 74.8344 17.4579 75.0361 17.6668C75.2453 17.8757 75.488 18.0398 75.7644 18.1591C76.0408 18.2784 76.3396 18.3381 76.6609 18.3381C77.3631 18.3381 77.9943 18.0398 78.5546 17.443V20.0388L78.3305 20.1171C77.9943 20.2365 77.6805 20.3222 77.3892 20.3745C77.0979 20.4341 76.8103 20.464 76.5264 20.464C75.9437 20.464 75.3835 20.3558 74.8456 20.1395C74.3152 19.9157 73.8446 19.6062 73.4337 19.2108C73.0303 18.808 72.7054 18.3344 72.4589 17.7899C72.2124 17.2379 72.0891 16.6374 72.0891 15.9885C72.0891 15.3395 72.2086 14.7465 72.4477 14.2095C72.6942 13.665 73.0191 13.1988 73.4225 12.8109C73.8334 12.4156 74.3077 12.1097 74.8456 11.8934C75.3835 11.6697 75.9475 11.5578 76.5376 11.5578C76.8738 11.5578 77.2025 11.5951 77.5237 11.6697C77.8524 11.7368 78.196 11.8449 78.5546 11.9941V14.6123Z" fill="#FF4400"/>
<path d="M82.5884 11.7927V18.3717H85.2216V20.229H80.3921V11.7927H82.5884Z" fill="#FF4400"/>
<path d="M91.6112 13.6501H89.0004V15.0598H91.4655V16.9172H89.0004V18.3717H91.6112V20.229H86.8041V11.7927H91.6112V13.6501Z" fill="#FF4400"/>
<path d="M98.2819 13.9521C98.0428 13.7582 97.8038 13.6165 97.5647 13.527C97.3257 13.43 97.0941 13.3815 96.87 13.3815C96.5861 13.3815 96.3546 13.4487 96.1753 13.5829C95.996 13.7172 95.9064 13.8925 95.9064 14.1088C95.9064 14.258 95.9512 14.3811 96.0408 14.478C96.1305 14.575 96.2463 14.6608 96.3882 14.7354C96.5376 14.8025 96.7019 14.8622 96.8812 14.9144C97.068 14.9666 97.251 15.0225 97.4303 15.0822C98.1474 15.3209 98.6703 15.6416 98.999 16.0444C99.3352 16.4398 99.5033 16.9582 99.5033 17.5997C99.5033 18.0323 99.4286 18.4239 99.2792 18.7745C99.1372 19.1251 98.9243 19.4272 98.6405 19.6808C98.3641 19.9269 98.0204 20.1171 97.6096 20.2514C97.2062 20.3931 96.7467 20.464 96.2313 20.464C95.1631 20.464 94.1733 20.147 93.2619 19.5129L94.2031 17.7451C94.5318 18.036 94.8568 18.2523 95.178 18.3941C95.4992 18.5358 95.8167 18.6066 96.1305 18.6066C96.489 18.6066 96.7542 18.5246 96.926 18.3605C97.1053 18.1964 97.195 18.0099 97.195 17.8011C97.195 17.6743 97.1726 17.5661 97.1277 17.4766C97.0829 17.3796 97.0082 17.2938 96.9036 17.2192C96.799 17.1372 96.6608 17.0626 96.489 16.9955C96.3247 16.9283 96.123 16.8538 95.8839 16.7717C95.6001 16.6822 95.3199 16.5852 95.0435 16.4808C94.7746 16.3689 94.5318 16.2235 94.3152 16.0444C94.106 15.8654 93.9342 15.6416 93.7998 15.3731C93.6728 15.0971 93.6093 14.7503 93.6093 14.3326C93.6093 13.9149 93.6765 13.5382 93.811 13.2025C93.9529 12.8594 94.1471 12.5685 94.3936 12.3298C94.6476 12.0836 94.9539 11.8934 95.3125 11.7592C95.6785 11.6249 96.0856 11.5578 96.5339 11.5578C96.9522 11.5578 97.3892 11.6174 97.8449 11.7368C98.3006 11.8487 98.7376 12.0165 99.1559 12.2403L98.2819 13.9521Z" fill="#FF4400"/>
</g>
<defs>
<clipPath id="clip0_3319_96">
<rect width="107.47" height="32" fill="white"/>
</clipPath>
</defs>
</svg>
