<svg xmlns="http://www.w3.org/2000/svg" width="22" height="32" viewBox="0 0 22 32" fill="none">
<g clip-path="url(#clip0_2197_28231)">
<path d="M8.04769 1L0.714355 1.33333L1.71436 14.3333L2.04769 16L4.38102 30.6667H17.0477L18.7144 15H19.7144L20.7144 1.33333L8.04769 1Z" fill="#4F4F4F"/>
<path d="M2.40479 6.75095L19.6706 6L19.3846 13.1936C19.3309 13.9863 18.7647 14.3915 18.0615 14.6419L17.7575 17.8602L16.7144 28C16.625 28.8582 16.1856 28.9702 15.381 29L5.71436 29.3333C5.08857 29.3512 4.3393 29.5249 4.38102 28.6667L3.71436 21.3333L3.01866 13.9982L2.45246 13.8969L2.40479 6.75095Z" fill="#54A8EA"/>
<path d="M2.04785 14.3794L4.04785 30.8794L17.0479 30.3794L18.5479 18.3794L19.0479 14.8794C19.7511 14.6291 19.3311 13.9923 19.3847 13.1996L19.6708 6.00598L2.40495 6.75097L2.45263 13.8969L2.04785 14.3794Z" fill="#54A8EA"/>
<path d="M3.04785 14.8794H3.54785H19.0479C19.5479 14.8794 20.024 13.7131 20.0479 13.3794V5.87939H1.04785L2.04785 14.8794H3.04785Z" fill="#54A8EA"/>
<path d="M17.3431 28.7509C17.2513 29.7894 16.5651 30.5827 15.738 30.6188L5.25573 31.3328C4.60633 31.3544 4.08559 30.6693 4.1346 29.6308C4.1346 29.6308 2.80517 26.6666 10.5551 26.6666C18.305 26.6666 17.3431 28.7509 17.3431 28.7509Z" fill="#54A8EA"/>
<path d="M0.734375 1.18667C0.734375 1.18667 1.36104 11.9267 1.68771 15.3C1.68771 15.3 17.1144 15.3933 19.8344 15.0467C19.8344 15.0467 20.521 4.21333 20.7344 1.18667C20.7344 1.18667 5.30104 0.84 0.734375 1.18667Z" stroke="#BFE1FC" stroke-miterlimit="10" stroke-linecap="round" stroke-linejoin="round"/>
<path d="M2.04785 15.3794L3.99452 31.0133L17.1545 30.78L18.9812 15.38" stroke="#BFE1FC" stroke-miterlimit="10" stroke-linecap="round" stroke-linejoin="round"/>
<path d="M2.96094 21.1333C3.2276 19.3466 4.82094 18.2266 5.73427 19.2133C6.17427 19.6866 6.45427 20.5133 6.6076 21.3466C7.16094 24.3533 7.36094 27.5066 7.31427 30.6333C7.31427 30.6333 7.33427 25.5 7.74094 23.2C8.1476 20.9 8.43427 17.8866 10.5009 17.8333C12.9409 17.7733 13.2943 26.68 13.2609 30.8C13.4009 28.42 14.2409 20.36 15.0943 19.32C15.4009 18.9466 15.7743 18.72 16.1543 18.6533C17.5609 18.3933 18.0476 20.8794 18.0476 20.8794" stroke="#BFE1FC" stroke-miterlimit="10" stroke-linecap="round" stroke-linejoin="round"/>
</g>
<defs>
<clipPath id="clip0_2197_28231">
<rect width="21.3333" height="32" fill="white" transform="translate(0.0478516)"/>
</clipPath>
</defs>
</svg>