<svg xmlns="http://www.w3.org/2000/svg" width="23" height="32" viewBox="0 0 23 32" fill="none">
<g clip-path="url(#clip0_2197_28243)">
<path d="M8.85677 1L1.52344 1.33333L2.52344 14.3333L2.85677 16L5.1901 30.6667H17.8568L19.5234 15H20.5234L21.5234 1.33333L8.85677 1Z" fill="#393939"/>
<path d="M18.4635 29.3134C18.3636 30.2734 17.6169 31.0067 16.7169 31.0401L5.19027 31.3334C4.4836 31.3534 4.47014 30.96 4.52348 30C4.52348 30 2.64355 27.3867 11.0769 27.3867C19.5102 27.3867 18.4635 29.3134 18.4635 29.3134Z" fill="#4F4F4F"/>
<path d="M1.54346 1.18667C1.54346 1.18667 2.17012 11.9267 2.49679 15.3C2.49679 15.3 17.9235 15.3933 20.6435 15.0467C20.6435 15.0467 21.3301 4.21333 21.5435 1.18667C21.5435 1.18667 6.11012 0.84 1.54346 1.18667Z" stroke="#6A6A6A" stroke-miterlimit="10" stroke-linecap="round" stroke-linejoin="round"/>
<path d="M3.33301 15.38L4.80347 31.0133L17.9635 30.78L19.7901 15.38" stroke="#6A6A6A" stroke-miterlimit="10" stroke-linecap="round" stroke-linejoin="round"/>
<path d="M3.93896 20.6881C4.21303 18.8969 5.85058 17.774 6.78926 18.7632C7.24148 19.2378 7.52925 20.0665 7.68683 20.902C8.25552 23.9163 8.46107 27.0777 8.41311 30.2123C8.41311 30.2123 8.43367 25.0659 8.85162 22.76C9.26957 20.4542 9.5642 17.4332 11.6882 17.3797C14.1959 17.3195 14.5591 26.2489 14.5248 30.3794C14.6687 27.9933 15.532 19.9128 16.409 18.8702C16.7242 18.4959 17.1079 18.2686 17.4984 18.2018C18.9441 17.9411 18.999 20.4609 18.999 20.4609" stroke="#6A6A6A" stroke-miterlimit="10" stroke-linecap="round" stroke-linejoin="round"/>
</g>
<defs>
<clipPath id="clip0_2197_28243">
<rect width="21.3333" height="32" fill="white" transform="translate(0.856934)"/>
</clipPath>
</defs>
</svg>